<?xml version="1.0" encoding="utf-8"?>
<!-- Generator: Adobe Illustrator 19.1.0, SVG Export Plug-In . SVG Version: 6.00 Build 0)  -->
<svg version="1.1" id="Layer_1" xmlns="http://www.w3.org/2000/svg" xmlns:xlink="http://www.w3.org/1999/xlink" x="0px" y="0px"
	 viewBox="0 0 68 68" style="enable-background:new 0 0 68 68;" xml:space="preserve">
<style type="text/css">
	.st0{clip-path:url(#SVGID_2_);fill:#FFFFFF;}
	.st1{clip-path:url(#SVGID_2_);fill:#0072BC;}
	.st2{clip-path:url(#SVGID_2_);fill:#A7A9AC;}
	.st3{clip-path:url(#SVGID_2_);fill:none;stroke:#A7A9AC;stroke-width:1.700000e-02;stroke-miterlimit:3.864;}
	.st4{clip-path:url(#SVGID_2_);fill-rule:evenodd;clip-rule:evenodd;fill:#FFFFFF;}
	
		.st5{clip-path:url(#SVGID_2_);fill:none;stroke:#FFFFFF;stroke-width:0.147;stroke-linecap:round;stroke-linejoin:round;stroke-miterlimit:3.864;}
	
		.st6{clip-path:url(#SVGID_2_);fill:none;stroke:#0072BC;stroke-width:0.147;stroke-linecap:round;stroke-linejoin:round;stroke-miterlimit:3.864;}
	.st7{clip-path:url(#SVGID_2_);fill-rule:evenodd;clip-rule:evenodd;fill:#0072BC;}
	.st8{clip-path:url(#SVGID_2_);fill:none;stroke:#FFFFFF;stroke-width:0.825;stroke-miterlimit:3.864;}
	.st9{clip-path:url(#SVGID_2_);fill:none;stroke:#A7A9AC;stroke-width:3.900000e-02;stroke-miterlimit:3.864;}
	.st10{clip-path:url(#SVGID_2_);fill:none;stroke:#A7A9AC;stroke-width:2.100000e-02;stroke-miterlimit:3.864;}
	.st11{clip-path:url(#SVGID_2_);fill:none;stroke:#A7A9AC;stroke-width:0.603;stroke-miterlimit:3.864;}
</style>
<g>
	<defs>
		<rect id="SVGID_1_" x="0.2" width="67.6" height="69.8"/>
	</defs>
	<clipPath id="SVGID_2_">
		<use xlink:href="#SVGID_1_"  style="overflow:visible;"/>
	</clipPath>
	<path class="st0" d="M0.2,33.8C0.2,15.1,15.3,0,34,0c18.7,0,33.8,15.1,33.8,33.8S52.7,67.6,34,67.6C15.3,67.6,0.2,52.4,0.2,33.8"/>
	<path class="st1" d="M1.8,38c0.4,0,0.8,0,1.2,0c2.6,0,5,0.4,7.3,1.2c0.6,0.2,1.2,0.4,1.8,0.7c1.2-0.3,2.5-0.5,3.9-0.5
		c2.6,0,5,0.6,7.2,1.7C25,40.4,27,40,29.1,40c2.6,0,5,0.6,7.2,1.6c2.5-1.5,5.3-2.3,8.4-2.3c0.8,0,1.6,0.1,2.3,0.2
		c2.5-1.5,5.5-2.4,8.6-2.4c3.9,0,7.4,1.3,10.2,3.6l0.3,0.3c0.5-2.4,0.8-4.8,0.8-7.3c0-18.2-14.8-33-33-33S1,15.4,1,33.6
		c0,1.5,0.1,3,0.3,4.5L1.8,38z"/>
	<path class="st2" d="M46.8,36.5c-0.5,0-0.7-0.1-1.5,0.2c-0.5,0.2-0.9,0.4-1.4,0.6l0.4,1.2c0,0,0.2,0.6,0.2,1
		c-0.1,0.4-0.2,0.6-0.4,0.8c-1.1,1.2-3.8,4-3.9,4c0.5-2,0.9-2.4,2-5.2L41,37.6c-0.5-0.1-1-0.2-1.5-0.3c-0.2,0-0.3-0.1-0.5,0
		c-0.2,0-0.2,0.1-0.4,0.2c-2.4,1-4.5,2.2-4.5,2.2c0.6-0.6,2.1-1.8,2.1-1.8c0.1-0.1,0.4-0.3,0.3-0.6C36.4,37,36,36.9,36,36.9l-4-1.7
		c0-0.1,3,0.6,5.4,1.2c0,0,0.4,0.1,0.8,0.1c0.3,0,0.6-0.2,0.6-0.2c0.7-0.3,1.4-0.7,2.1-1c0,0,0.9-3.3,0.9-3.4c-1.5-2.5-2-7-2.3-7.5
		c0-0.1,2.4,3.8,4,5.7c0.1,0.1,0.7,0.6,0.8,1.4c0,0.1,0.2,0.9,0.1,1.4c-0.1,0.8-0.3,1.3-0.4,1.9c0.8,0.1,1.3,0.1,1.9,0.7
		c0.1,0.1,0.2,0.3,0.2,0.4C46.3,36,46.8,36.4,46.8,36.5"/>
	<path class="st3" d="M46.8,36.5c-0.5,0-0.7-0.1-1.5,0.2c-0.5,0.2-0.9,0.4-1.4,0.6l0.4,1.2c0,0,0.2,0.6,0.2,1
		c-0.1,0.4-0.2,0.6-0.4,0.8c-1.1,1.2-3.8,4-3.9,4c0.5-2,0.9-2.4,2-5.2L41,37.6c-0.5-0.1-1-0.2-1.5-0.3c-0.2,0-0.3-0.1-0.5,0
		c-0.2,0-0.2,0.1-0.4,0.2c-2.4,1-4.5,2.2-4.5,2.2c0.6-0.6,2.1-1.8,2.1-1.8c0.1-0.1,0.4-0.3,0.3-0.6C36.4,37,36,36.9,36,36.9l-4-1.7
		c0-0.1,3,0.6,5.4,1.2c0,0,0.4,0.1,0.8,0.1c0.3,0,0.6-0.2,0.6-0.2c0.7-0.3,1.4-0.7,2.1-1c0,0,0.9-3.3,0.9-3.4c-1.5-2.5-2-7-2.3-7.5
		c0-0.1,2.4,3.8,4,5.7c0.1,0.1,0.7,0.6,0.8,1.4c0,0.1,0.2,0.9,0.1,1.4c-0.1,0.8-0.3,1.3-0.4,1.9c0.8,0.1,1.3,0.1,1.9,0.7
		c0.1,0.1,0.2,0.3,0.2,0.4C46.3,36,46.8,36.4,46.8,36.5z"/>
	<path class="st0" d="M45.7,36.3c-0.5,0.1-1,0.4-1.4,0.5c0,0,0-0.2-0.1-0.5C44.1,36,44,35.7,44,35.7C44.6,35.7,45.4,35.6,45.7,36.3"
		/>
	<path class="st0" d="M43.9,37c-1.2,0.5-2.8,0.3-4.1,0c1-0.7,2.3-1.1,3.6-1.2C43.7,36.1,43.8,36.5,43.9,37"/>
	<rect x="5.6" y="20.3" transform="matrix(0.8829 0.4695 -0.4695 0.8829 10.7215 -1.6192)" class="st4" width="6" height="0.8"/>
	<rect x="5.6" y="20.3" transform="matrix(0.8829 0.4695 -0.4695 0.8829 10.7215 -1.6192)" class="st5" width="6" height="0.8"/>
	<rect x="40.7" y="6.9" transform="matrix(-0.3747 0.9272 -0.9272 -0.3747 66.8191 -30.4004)" class="st4" width="6" height="0.8"/>
	<rect x="40.7" y="6.9" transform="matrix(-0.3747 0.9272 -0.9272 -0.3747 66.8191 -30.4004)" class="st5" width="6" height="0.8"/>
	<polygon class="st0" points="52.9,16.7 53.4,16.2 49.7,13.2 52.9,9.1 52.2,8.5 48.5,13.2 	"/>
	<polygon class="st5" points="52.9,16.7 53.4,16.2 49.7,13.2 52.9,9.1 52.2,8.5 48.5,13.2 	"/>
	<polygon class="st0" points="57.8,25 58.4,24.7 55.8,20.1 57.7,19.1 60,23.1 60.6,22.8 58.4,18.7 59.9,17.8 62.4,22.3 63,22 
		60.1,16.8 54.8,19.7 	"/>
	<polygon class="st5" points="57.8,25 58.4,24.7 55.8,20.1 57.7,19.1 60,23.1 60.6,22.8 58.4,18.7 59.9,17.8 62.4,22.3 63,22 
		60.1,16.8 54.8,19.7 	"/>
	<path class="st0" d="M60,28.7c-1,0.7-1.3,2.1-1.2,3.3c0.1,1.6,0.9,3.1,2.3,3c2.8-0.3,0.7-5.2,2-5.7c0.4-0.1,1.2,0.3,1.4,2
		c0.1,1-0.1,1.9-0.6,2.3l0.5,0.6c0.5-0.5,0.8-1.6,0.7-2.8c-0.2-2-1.3-2.9-2-2.8c-2.5,0.3-0.4,5.4-2.1,5.6c-0.7,0.1-1.3-0.4-1.5-2
		c-0.2-1.4,0.2-2.3,0.9-2.7L60,28.7z"/>
	<path class="st5" d="M60,28.7c-1,0.7-1.3,2.1-1.2,3.3c0.1,1.6,0.9,3.1,2.3,3c2.8-0.3,0.7-5.2,2-5.7c0.4-0.1,1.2,0.3,1.4,2
		c0.1,1-0.1,1.9-0.6,2.3l0.5,0.6c0.5-0.5,0.8-1.6,0.7-2.8c-0.2-2-1.3-2.9-2-2.8c-2.5,0.3-0.4,5.4-2.1,5.6c-0.7,0.1-1.3-0.4-1.5-2
		c-0.2-1.4,0.2-2.3,0.9-2.7L60,28.7z"/>
	<polygon class="st0" points="29.5,8.7 29.5,3.6 32.4,8.6 33.4,8.6 36.1,3.4 36.3,8.6 37.1,8.6 37,2.6 35.7,2.6 32.9,7.9 32.9,7.9 
		29.9,2.7 28.6,2.7 28.7,8.7 	"/>
	<polygon class="st5" points="29.5,8.7 29.5,3.6 32.4,8.6 33.4,8.6 36.1,3.4 36.3,8.6 37.1,8.6 37,2.6 35.7,2.6 32.9,7.9 32.9,7.9 
		29.9,2.7 28.6,2.7 28.7,8.7 	"/>
	<polygon class="st0" points="8.3,33.9 6.7,32.7 7.3,28.4 9.1,27.7 9.2,26.9 2.8,29.5 2.7,30.4 8.1,34.8 	"/>
	<polygon class="st5" points="8.3,33.9 6.7,32.7 7.3,28.4 9.1,27.7 9.2,26.9 2.8,29.5 2.7,30.4 8.1,34.8 	"/>
	<polygon class="st1" points="3.4,30.1 6.4,29 6,32.1 	"/>
	<polygon class="st6" points="3.4,30.1 6.4,29 6,32.1 	"/>
	<path class="st0" d="M15.6,12.5c0.1,0,3,0.7,3,0.7l0.7-0.7l0,0c-0.2,0.1-3.1-0.7-3.2-0.7c0.7-1,0.7-1.8,0.1-2.4
		c-0.8-0.7-1.9-0.3-3.3,1L10.4,13l4.2,4.2l0.6-0.6l-1.8-1.9L15.6,12.5z"/>
	<path class="st5" d="M15.6,12.5c0.1,0,3,0.7,3,0.7l0.7-0.7l0,0c-0.2,0.1-3.1-0.7-3.2-0.7c0.7-1,0.7-1.8,0.1-2.4
		c-0.8-0.7-1.9-0.3-3.3,1L10.4,13l4.2,4.2l0.6-0.6l-1.8-1.9L15.6,12.5z"/>
	<path class="st1" d="M12.9,14.2l-1.2-1.2l1.8-1.8c0.8-0.8,1.6-1.5,2.1-1c0.5,0.5,0.2,1.1-0.8,2.1L12.9,14.2z"/>
	<path class="st6" d="M12.9,14.2l-1.2-1.2l1.8-1.8c0.8-0.8,1.6-1.5,2.1-1c0.5,0.5,0.2,1.1-0.8,2.1L12.9,14.2z"/>
	<path class="st7" d="M52.6,57.3c0,0.2-0.1,0.4-0.2,0.5c-0.1,0.1-0.2,0-0.4-0.2c-0.4-0.5-1.4-3-1.7-3.5c-0.2-0.3-0.4-0.4-0.6-0.2
		c-0.7,0.5-0.6,3-0.3,4.1l0,0c-0.5-1-1.1-2.2-1.4-3.1l-0.8,1.2l0.1,0.1c0.1-0.1,0.2-0.3,0.4-0.4c0.6,1.2,1.3,2.7,2.1,4.1l0.5-0.4
		c-0.6-1.3-0.9-4.5-0.4-4.9c0.1,0,0.1,0,0.2,0.1c0.2,0.3,1.2,2.6,1.6,3.2c0.2,0.3,0.5,0.6,0.8,0.4c0.3-0.2,0.4-0.7,0.5-1.2
		L52.6,57.3z"/>
	<path class="st7" d="M6.7,42.7c-0.3,0.2-1.1,0.5-1.5,0.6c-0.1,0.6,0,1.4,0.2,1.9c0.5,1.4,1.5,2.2,2.8,1.8c1.2-0.4,1.1-1.5,0.9-2.7
		c-0.2-1-0.2-1.8,0.5-2c0.9-0.3,1.5,0.5,1.8,1.3c0.3,1,0.1,1.5-0.7,1.9l0.1,0.2c0.4-0.2,0.9-0.4,1.3-0.5c-0.1-0.6-0.2-1.2-0.3-1.7
		c-0.4-1.1-1.3-2.1-2.4-1.7c-1,0.3-1.1,1.2-0.9,2.5c0.1,0.9,0.4,1.8-0.6,2.1c-1,0.3-1.7-0.4-2-1.2c-0.4-1.1,0-1.7,1-2.2L6.7,42.7z"
		/>
	<path class="st7" d="M13,55.2c-0.1,0-0.4-0.1-0.5-0.1c-0.1-0.1,0-0.2,0.2-0.4c0.7-0.6,2.7-1.9,3.7-2.6L16,51.9
		c-0.1-0.1-0.1-0.3-0.3-0.5c-0.9-1.1-3.3-0.9-4.8,0.4c-0.6,0.5-0.9,1.1-0.5,1.6c0.6,0.7,2.5,0.1,3.6-0.4l0,0c-0.6,0.4-1.4,1-1.8,1.3
		c-0.3,0.2-0.5,0.5-0.3,0.8c0.2,0.3,0.8,0.3,1.1,0.3L13,55.2z M11.3,52.3c0.6-0.6,2.1-1.3,3-1.3c0.4,0,0.7,0.2,0.9,0.5
		c0.1,0.2,0.3,0.4,0.3,0.5c-0.4,0.4-3.9,1.7-4.4,1.1C10.8,52.9,10.9,52.6,11.3,52.3"/>
	<path class="st7" d="M16.6,53.2c0.2,0.1,0.3,0.2,0.5,0.2c-1,1-2.2,2.1-3.4,3.2l0.5,0.3c0.5-0.4,1.5-1.3,2.2-1.7
		c1-0.5,1.8-0.8,2.4-0.3l0.2,0.2l0.5-0.4c-0.1-0.1-0.2-0.2-0.3-0.3c-0.7-0.5-2.1,0.2-2.8,0.6l0,0c0.2-0.2,1.1-1,1.7-1.5l-1.4-0.4
		L16.6,53.2z"/>
	<path class="st7" d="M20.8,56.5c-0.4,0.7-1.6,1-2.6,0.7c0.4-0.6,1.2-1.3,1.8-1.4c0.3-0.1,0.5,0,0.7,0.1C20.9,56,21,56.3,20.8,56.5
		 M19.5,59.1c-0.5,0.2-1.4,0.4-1.8,0.1c-0.3-0.2-0.3-0.6,0-1.2c0.2-0.3,0.3-0.4,0.4-0.5c1.1,0.4,2.8,0.3,3.4-0.7
		c0.3-0.4,0.3-0.9-0.1-1.1c-0.9-0.6-3.1,0-4.2,1.8c-0.4,0.6-0.7,1.4,0.1,1.9c0.7,0.4,1.7,0.1,2.3-0.1L19.5,59.1z"/>
	<path class="st7" d="M24.1,61.8c-0.2,0.1-0.4,0.2-0.6,0.1c-0.1,0-0.1-0.2-0.1-0.4c0.2-0.6,1.7-2.9,1.9-3.4c0.1-0.3,0.1-0.5-0.2-0.6
		c-0.8-0.3-2.8,1.2-3.6,2.1l0,0c0.5-1,1.2-2.2,1.7-2.9l-1.4,0.1l-0.1,0.2c0.2,0,0.4,0,0.6,0.1c-0.6,1.2-1.5,2.7-2.2,4.1l0.6,0.2
		c0.7-1.2,3.2-3.4,3.8-3.1c0.1,0,0.1,0.1,0.1,0.2c-0.1,0.3-1.5,2.5-1.7,3.1c-0.1,0.4-0.2,0.7,0.1,0.8c0.4,0.1,0.8-0.1,1.2-0.3
		L24.1,61.8z"/>
	<path class="st7" d="M30.5,60c-0.1,0.8-1.1,1.5-2.2,1.6c0.2-0.7,0.6-1.7,1.1-2c0.3-0.2,0.4-0.2,0.7-0.1
		C30.4,59.5,30.5,59.7,30.5,60 M30.2,62.8c-0.4,0.3-1.1,0.9-1.7,0.8c-0.4-0.1-0.6-0.5-0.4-1.1c0.1-0.3,0.1-0.5,0.1-0.6
		c1.1-0.1,2.7-0.8,2.9-1.9c0.1-0.5-0.1-0.9-0.5-1c-1.1-0.2-2.8,1.2-3.2,3.3c-0.1,0.7-0.1,1.6,0.8,1.7c0.8,0.1,1.6-0.5,2.1-1
		L30.2,62.8z"/>
	<path class="st7" d="M35.6,63.8c-0.2,0.1-0.3,0.3-0.5,0.3c-0.1,0-0.2-0.1-0.2-0.3c0-0.6,0.6-3.3,0.6-3.8c0-0.4-0.1-0.5-0.4-0.5
		c-0.9,0-2.2,2-2.6,3.2l0,0c0.2-1.1,0.4-2.4,0.6-3.3l-1.3,0.6l0,0.2c0.2,0,0.4-0.1,0.5-0.1c-0.2,1.4-0.5,3-0.7,4.6l0.6-0.1
		c0.3-1.4,1.8-4.2,2.5-4.2c0.1,0,0.1,0,0.1,0.2c0,0.3-0.5,2.8-0.5,3.5c0,0.4,0.1,0.7,0.4,0.8c0.4,0,0.8-0.4,1.1-0.7L35.6,63.8z"/>
	<path class="st7" d="M43.8,60.5C43.7,60.2,44,60,44.2,60l0-0.2c-0.3,0.1-0.6,0.2-0.9,0.3c-0.4,0.1-0.6,0.1-0.9,0.2l0,0.2
		c0.2-0.1,0.7-0.1,0.7,0.3l0.1,0.6c0,0.2,0.1,0.4,0.1,0.5c0,0.5-0.6,1.1-1.2,1.2c-1.3,0.3-2.7-0.6-3.2-2.3c-0.4-1.4,0.3-2.8,1.9-3.2
		c1.3-0.3,1.6,0.3,1.9,0.9l0.2-0.1c-0.2-0.4-0.4-1-0.4-1.4c-0.6-0.1-1.2-0.1-1.9,0.1c-1.9,0.5-2.7,2.4-2.3,4
		c0.4,1.6,1.8,2.9,3.6,2.4c0.9-0.2,1.3-0.7,1.5-1.2c0.1,0.1,0.3,0.3,0.4,0.5l0.1,0.2l0.2-0.1L43.8,60.5z"/>
	<path class="st7" d="M46.3,57.1c0.3,0.7,0,1.9-0.8,2.6C45.2,59,45,58,45.2,57.4c0.1-0.3,0.3-0.4,0.5-0.5
		C45.9,56.8,46.1,56.9,46.3,57.1 M47.7,59.6c-0.1,0.5-0.4,1.3-0.9,1.6c-0.4,0.2-0.7,0-1-0.6c-0.1-0.3-0.2-0.4-0.2-0.6
		c0.9-0.7,1.8-2.2,1.3-3.2c-0.2-0.5-0.6-0.7-1-0.5c-1,0.5-1.6,2.6-0.7,4.5c0.3,0.7,0.8,1.3,1.6,1c0.7-0.3,1-1.3,1.2-2L47.7,59.6z"/>
	<path class="st7" d="M54.6,55.3c0,0.4-0.1,0.6-0.1,0.6c-0.1,0.1-0.2,0-0.3-0.1c-0.3-0.4-1.9-2.9-2.4-3.8l-0.6,1.3l0.1,0.1
		c0.1-0.2,0.2-0.3,0.3-0.5c0.1,0.4,1.8,3,2.2,3.5c0.3,0.3,0.5,0.4,0.7,0.2c0.3-0.2,0.3-0.9,0.2-1.3L54.6,55.3z M50.3,51.3
		c0.2,0.3,0.5,0.2,0.6,0.1c0.2-0.2,0.2-0.4,0-0.7c-0.3-0.3-0.5-0.2-0.6-0.1C50.1,50.7,50,51,50.3,51.3"/>
	<path class="st7" d="M54.5,50.5c0.6,0.6,0.7,1.7,0.2,2.7c-0.5-0.5-1.1-1.4-1.1-2c0-0.3,0.1-0.5,0.3-0.7
		C54.1,50.3,54.3,50.2,54.5,50.5 M56.8,52.2c0.1,0.5,0.1,1.4-0.3,1.8c-0.3,0.3-0.7,0.2-1.2-0.2c-0.2-0.2-0.3-0.3-0.4-0.4
		c0.6-1,0.8-2.7,0-3.5c-0.4-0.3-0.8-0.4-1.1-0.1c-0.7,0.8-0.5,3,1,4.4c0.5,0.5,1.2,1,1.9,0.3c0.5-0.6,0.5-1.6,0.3-2.3L56.8,52.2z"/>
	<path class="st7" d="M54.9,49.2l0.2-0.3c0.7,0.6,2.4,2.3,2.9,2.7c0.4,0.3,0.8,0.2,1-0.1c0.3-0.4,0.1-1-0.1-1.6l-0.2,0
		c0.1,0.6,0.2,0.8,0,1c-0.1,0.2-0.3,0.2-0.6-0.1c-0.5-0.4-1.1-0.9-2.7-2.5l0.6-0.8l-0.3-0.2l-0.5,0.7L54.1,47l-0.2,0.7l1,1L54.7,49
		L54.9,49.2z"/>
	<path class="st7" d="M57.7,45.5c0.7,0.4,1.1,1.5,0.9,2.5c-0.6-0.4-1.4-1.1-1.6-1.6c-0.1-0.3-0.1-0.5,0.1-0.7
		C57.2,45.4,57.4,45.3,57.7,45.5 M60.3,46.5c0.2,0.5,0.5,1.3,0.3,1.8c-0.2,0.4-0.6,0.4-1.2,0.1c-0.3-0.1-0.4-0.2-0.5-0.3
		c0.3-1.1,0-2.8-1-3.3c-0.4-0.2-0.9-0.2-1.1,0.2c-0.5,1,0.4,3,2.3,4c0.7,0.3,1.5,0.5,1.9-0.3c0.3-0.7,0-1.7-0.4-2.3L60.3,46.5z"/>
	<path class="st7" d="M62.7,41.7c0.1,0.2,0.2,0.4,0.2,0.6c0,0.1-0.2,0.2-0.4,0.1c-0.6-0.2-3-1.4-3.5-1.6c-0.4-0.1-0.5-0.1-0.6,0.2
		c-0.2,0.9,1.4,2.7,2.4,3.4l0,0c-1-0.4-2.2-1-3.1-1.4l0.2,1.4l0.2,0c0-0.2,0-0.4,0-0.6c1.3,0.5,2.8,1.2,4.2,1.8l0.1-0.6
		c-1.3-0.6-3.6-2.9-3.4-3.5c0-0.1,0.1-0.1,0.2-0.1c0.3,0.1,2.6,1.2,3.3,1.4c0.4,0.1,0.7,0.1,0.8-0.2c0.1-0.4-0.2-0.8-0.4-1.2
		L62.7,41.7z"/>
	<path class="st7" d="M5.9,49.1l0.3,0.4c0.7-0.3,0.8-0.3,1.4-0.5c0,0.2,0,0.3,0.1,0.5c0.6,0.9,3.5,1.3,5,0.4
		c0.7-0.4,0.9-0.9,0.6-1.4c-0.5-0.8-2-0.8-2.8-0.7l0,0l1.9-0.7l-1.1-0.8l-0.1,0.1c0.1,0.1,0.3,0.3,0.4,0.4L5.9,49.1z M8.6,48.6
		c0.9-0.5,3.6-0.6,4.1,0.1c0.1,0.2,0,0.4-0.4,0.7c-0.8,0.5-3.6,1-4.1,0.2C8.1,49.2,8.2,48.8,8.6,48.6"/>
	<path class="st8" d="M11.6,40.8c-0.7-2.2-1.1-4.5-1.1-7C10.5,21,21,10.5,33.9,10.5S57.2,21,57.2,33.9c0,1.5-0.1,3-0.4,4.5"/>
	<path class="st2" d="M37,28.7c-1-0.1-1.3-0.2-3,0.3c-0.9,0.3-1.9,0.7-2.7,1l1.1,3.9c0,0,0.2,0.9,0.1,1.5c-0.2,0.8-0.5,1.2-1,1.7
		c-2.2,2.3-7.3,8.3-7.4,8.3c1.2-3.8,1.2-6.1,3.7-11.3l-2-3.7c-1-0.2-2-0.4-3-0.6c-0.3-0.1-0.4-0.1-0.6-0.1c-0.4,0-0.5,0.2-0.9,0.3
		c-4.8,1.9-10.7,4.5-10.7,4.5c1.2-1.1,5.6-4.2,5.6-4.2c0.2-0.2,0.5-0.5,0.4-1.1c-0.1-0.5-0.7-0.8-0.7-0.8l-7.5-4.4
		c-0.1-0.1,6.1,2.2,10.8,3.6c0,0,0.9,0.2,1.6,0.2c0.5,0,1.1-0.1,1.1-0.1c1.4-0.6,2.3-1.3,3.7-1.7c0.1-0.1,1.6-7.1,1.7-7.4
		c-2.7-4.5-4.8-13-5.3-14c0-0.1,5.8,6.7,8.7,10.5c0.1,0.2,1.6,1.7,1.7,3.1c0,0.2,0.1,1.4-0.1,2.4c-0.2,1.6-0.4,3.3-0.6,4.5
		c1.6,0.1,2.3,0.4,3.1,1c0,0,0.7,0.6,0.8,1.4C35.5,27.3,36.6,27.7,37,28.7"/>
	<path class="st9" d="M37,28.7c-1-0.1-1.3-0.2-3,0.3c-0.9,0.3-1.9,0.7-2.7,1l1.1,3.9c0,0,0.2,0.9,0.1,1.5c-0.2,0.8-0.5,1.2-1,1.7
		c-2.2,2.3-7.3,8.3-7.4,8.3c1.2-3.8,1.2-6.1,3.7-11.3l-2-3.7c-1-0.2-2-0.4-3-0.6c-0.3-0.1-0.4-0.1-0.6-0.1c-0.4,0-0.5,0.2-0.9,0.3
		c-4.8,1.9-10.7,4.5-10.7,4.5c1.2-1.1,5.6-4.2,5.6-4.2c0.2-0.2,0.5-0.5,0.4-1.1c-0.1-0.5-0.7-0.8-0.7-0.8l-7.5-4.4
		c-0.1-0.1,6.1,2.2,10.8,3.6c0,0,0.9,0.2,1.6,0.2c0.5,0,1.1-0.1,1.1-0.1c1.4-0.6,2.3-1.3,3.7-1.7c0.1-0.1,1.6-7.1,1.7-7.4
		c-2.7-4.5-4.8-13-5.3-14c0-0.1,5.8,6.7,8.7,10.5c0.1,0.2,1.6,1.7,1.7,3.1c0,0.2,0.1,1.4-0.1,2.4c-0.2,1.6-0.4,3.3-0.6,4.5
		c1.6,0.1,2.3,0.4,3.1,1c0,0,0.7,0.6,0.8,1.4C35.5,27.3,36.6,27.7,37,28.7z"/>
	<path class="st0" d="M35,28.1c-1,0.2-2,0.6-2.8,0.9c0-0.1,0-0.4-0.2-1c-0.2-0.5-0.4-1.1-0.4-1.1C32.8,26.9,34.4,26.8,35,28.1"/>
	<path class="st0" d="M31.2,29.3c-2.5,1-5.6,0.5-8.1-0.2c2.1-1.3,4.5-2,7.1-2.1C30.9,27.6,31.2,28.4,31.2,29.3"/>
	<path class="st2" d="M53.6,23.8c-0.6-0.1-0.8-0.1-1.8,0.2c-0.5,0.2-1.1,0.4-1.6,0.7l0.7,1.4c0,0,0.3,0.8,0.2,1.2
		c-0.1,0.4-0.2,0.7-0.5,1c-1.3,1.4-3.7,5.2-3.8,5.1c0.6-2.3,0.4-3.5,1.5-6.8l-1.5-1.6c-0.6-0.1-1.2-0.2-1.8-0.3
		c-0.2,0-0.4-0.1-0.6,0c-0.2,0-0.2,0.1-0.5,0.2c-2.8,1.2-5.3,2.6-5.3,2.6c0.7-0.7,2.4-2.1,2.4-2.1c0.1-0.1,0.4-0.3,0.3-0.7
		c-0.1-0.3-0.6-0.5-0.6-0.5l-4.6-2c0-0.1,3.4,0.7,6.2,1.5c0,0,0.5,0.1,0.9,0.1c0.3,0,0.7-0.2,0.7-0.2c0.8-0.4,1.6-0.8,2.4-1.1
		c0-0.1,0.8-3.9,0.9-4c-1.7-2.6-2.7-8.1-3-8.7c0-0.1,3.2,4.3,5,6.5c0.1,0.1,0.8,0.8,0.9,1.6c0,0.1,0.2,1,0.2,1.6
		c-0.1,1-0.2,1.6-0.2,2.3c0.9,0.1,1.6,0.1,2.2,0.9c0.1,0.1,0.2,0.3,0.2,0.5C53.1,23.1,53.6,23.7,53.6,23.8"/>
	<path class="st10" d="M53.6,23.8c-0.6-0.1-0.8-0.1-1.8,0.2c-0.5,0.2-1.1,0.4-1.6,0.7l0.7,1.4c0,0,0.3,0.8,0.2,1.2
		c-0.1,0.4-0.2,0.7-0.5,1c-1.3,1.4-3.7,5.2-3.8,5.1c0.6-2.3,0.4-3.5,1.5-6.8l-1.5-1.6c-0.6-0.1-1.2-0.2-1.8-0.3
		c-0.2,0-0.4-0.1-0.6,0c-0.2,0-0.2,0.1-0.5,0.2c-2.8,1.2-5.3,2.6-5.3,2.6c0.7-0.7,2.4-2.1,2.4-2.1c0.1-0.1,0.4-0.3,0.3-0.7
		c-0.1-0.3-0.6-0.5-0.6-0.5l-4.6-2c0-0.1,3.4,0.7,6.2,1.5c0,0,0.5,0.1,0.9,0.1c0.3,0,0.7-0.2,0.7-0.2c0.8-0.4,1.6-0.8,2.4-1.1
		c0-0.1,0.8-3.9,0.9-4c-1.7-2.6-2.7-8.1-3-8.7c0-0.1,3.2,4.3,5,6.5c0.1,0.1,0.8,0.8,0.9,1.6c0,0.1,0.2,1,0.2,1.6
		c-0.1,1-0.2,1.6-0.2,2.3c0.9,0.1,1.6,0.1,2.2,0.9c0.1,0.1,0.2,0.3,0.2,0.5C53.1,23.1,53.6,23.7,53.6,23.8z"/>
	<path class="st0" d="M52.4,23.5c-0.6,0.2-1.2,0.4-1.6,0.6c0,0,0-0.3-0.1-0.6c-0.1-0.3-0.3-0.7-0.3-0.7C51.1,22.8,52,22.7,52.4,23.5
		"/>
	<path class="st0" d="M50.2,24.3c-1.5,0.6-3.4,0.4-4.8,0c1.2-0.8,2.7-1.3,4.2-1.4C49.9,23.3,50.1,23.8,50.2,24.3"/>
	<path class="st11" d="M42.9,44.2c3-3.6,7.5-5.9,12.6-5.9c3.9,0,7.3,1.3,10.1,3.5C62.2,56,49.3,66.6,34,66.6
		c-16.2,0-29.7-11.8-32.2-27.3l0.1,0c0.4,0,0.8,0,1.2,0c8.2,0,15.3,4.2,19.4,10.7 M12.1,41.1c1.2-0.3,2.6-0.5,3.9-0.5
		c8.4,0,15.4,6.4,16.3,14.6 M23.2,42.3c1.8-0.7,3.8-1.1,5.9-1.1c5.1,0,9.7,2.3,12.7,6 M36.2,42.9c2.5-1.5,5.3-2.3,8.4-2.3
		c0.8,0,1.6,0.1,2.3,0.2 M26.4,55.7c0.2,0,0.3-0.1,0.5-0.1c3.5-0.8,7-0.5,10.2,0.6"/>
</g>
</svg>
