<?xml version="1.0" encoding="UTF-8" ?>
<!DOCTYPE svg PUBLIC "-//W3C//DTD SVG 1.1//EN" "http://www.w3.org/Graphics/SVG/1.1/DTD/svg11.dtd">
<svg width="1394pt" height="458pt" viewBox="0 0 1394 458" version="1.1" xmlns="http://www.w3.org/2000/svg">
<g id="#000000ff">
<path fill="#000000" opacity="1.00" d=" M 1262.10 0.00 L 1304.48 0.00 C 1286.22 25.94 1268.47 52.25 1250.16 78.15 C 1246.22 78.01 1242.29 78.13 1238.37 77.84 L 1237.87 77.19 C 1238.08 76.66 1238.50 75.60 1238.71 75.07 C 1239.55 72.43 1240.35 69.77 1241.11 67.10 C 1241.35 66.55 1241.82 65.46 1242.06 64.91 L 1241.94 64.07 C 1242.19 63.53 1242.69 62.45 1242.94 61.91 C 1243.63 59.30 1244.38 56.69 1245.09 54.08 C 1245.34 53.54 1245.84 52.44 1246.08 51.90 L 1245.98 51.05 C 1246.24 50.52 1246.77 49.45 1247.04 48.92 L 1246.93 48.07 C 1247.18 47.53 1247.68 46.44 1247.93 45.89 C 1248.61 43.28 1249.36 40.69 1250.07 38.09 C 1250.32 37.54 1250.81 36.46 1251.06 35.91 L 1250.94 35.08 C 1251.19 34.53 1251.69 33.45 1251.94 32.91 C 1252.63 30.30 1253.38 27.70 1254.09 25.08 C 1254.34 24.54 1254.84 23.45 1255.09 22.90 L 1254.98 22.05 C 1255.24 21.52 1255.77 20.46 1256.04 19.92 L 1255.93 19.07 C 1256.18 18.53 1256.68 17.44 1256.93 16.90 C 1257.62 14.29 1258.36 11.69 1259.08 9.09 C 1259.32 8.55 1259.82 7.46 1260.06 6.92 L 1259.93 6.09 C 1260.17 5.54 1260.64 4.45 1260.87 3.90 C 1261.25 2.59 1261.64 1.29 1262.10 0.00 Z" />
<path fill="#000000" opacity="1.00" d=" M 916.98 386.28 C 920.61 385.62 924.45 385.48 928.06 386.34 C 928.84 387.01 929.76 387.26 930.80 387.09 C 932.66 387.10 934.51 387.65 936.20 388.47 C 937.26 389.36 938.84 389.52 939.77 388.32 C 941.02 387.28 942.36 386.36 943.74 385.48 C 943.90 387.59 944.06 389.70 944.08 391.82 C 943.98 396.12 943.97 400.43 944.10 404.73 C 941.37 401.70 940.18 397.62 937.32 394.70 C 934.93 392.18 931.74 390.53 928.41 389.68 C 925.19 388.72 921.82 389.14 918.58 389.70 L 917.79 389.79 C 917.30 389.98 916.32 390.36 915.82 390.56 C 913.38 392.52 910.55 394.11 908.72 396.74 C 906.66 399.50 905.83 402.90 904.49 406.01 C 903.88 406.89 903.71 407.85 903.96 408.88 C 903.85 409.70 903.63 411.32 903.52 412.14 C 902.72 414.36 902.74 416.75 903.54 418.98 C 903.63 419.50 903.83 420.54 903.92 421.06 C 903.68 422.10 903.87 423.07 904.47 423.96 C 905.93 427.25 906.98 430.82 909.40 433.59 C 911.44 436.17 914.40 437.70 917.05 439.56 C 917.58 439.68 918.64 439.93 919.17 440.05 L 920.03 440.35 C 921.20 440.93 922.51 441.22 923.85 441.06 C 924.44 441.06 925.62 441.08 926.21 441.08 C 927.74 441.22 929.34 441.15 930.76 440.44 C 932.78 439.64 934.79 438.77 936.76 437.81 C 937.13 431.33 937.41 424.76 936.68 418.30 C 936.53 416.23 934.26 415.56 932.91 414.40 C 932.04 413.61 931.10 413.45 930.07 413.91 L 930.61 412.87 C 937.60 413.19 944.60 412.82 951.59 413.10 L 950.59 413.54 C 949.52 413.51 948.66 413.88 947.99 414.64 C 947.23 415.34 946.50 416.07 945.81 416.82 C 944.23 423.80 945.17 431.06 945.16 438.15 C 942.53 440.26 939.07 441.36 935.79 441.97 C 935.30 442.20 934.33 442.65 933.84 442.87 L 932.95 442.90 C 931.90 442.71 930.96 442.95 930.13 443.60 C 929.71 443.72 928.85 443.97 928.43 444.10 C 925.47 444.19 922.51 444.19 919.56 444.11 C 919.13 443.99 918.28 443.74 917.85 443.62 C 917.01 442.96 916.07 442.72 915.04 442.91 L 914.17 442.88 C 913.68 442.66 912.71 442.22 912.22 442.00 C 904.92 439.90 898.45 433.99 896.07 426.73 C 895.83 426.25 895.36 425.29 895.12 424.81 L 895.10 423.94 C 895.27 422.89 895.03 421.95 894.40 421.11 C 893.55 417.47 893.50 413.55 894.34 409.91 C 895.01 409.11 895.26 408.19 895.09 407.16 C 896.29 399.40 902.09 392.45 909.11 389.10 C 909.58 388.87 910.53 388.42 911.00 388.20 C 912.17 387.41 913.58 386.95 915.02 387.05 C 915.51 386.86 916.49 386.47 916.98 386.28 Z" />
<path fill="#000000" opacity="1.00" d=" M 457.53 387.03 C 465.75 387.36 474.06 386.47 482.23 387.48 C 483.68 387.93 485.20 388.18 486.74 388.06 C 487.53 388.11 489.12 388.19 489.91 388.24 C 490.40 388.45 491.37 388.87 491.86 389.08 C 495.84 389.95 500.08 392.93 500.95 397.09 C 501.17 397.57 501.61 398.52 501.84 399.00 C 502.03 400.67 502.14 402.41 501.70 404.06 C 501.00 404.83 500.71 405.73 500.84 406.77 C 499.65 411.11 495.12 414.31 490.79 414.98 C 490.27 415.10 489.24 415.32 488.73 415.43 C 488.38 415.75 487.67 416.38 487.32 416.69 C 490.79 421.79 495.04 426.27 498.81 431.15 C 502.05 434.97 504.79 439.86 509.99 441.22 C 510.26 441.66 510.79 442.55 511.06 443.00 C 506.59 442.99 502.12 442.90 497.66 443.21 C 490.95 434.49 484.32 425.71 477.72 416.92 C 476.99 416.93 475.52 416.96 474.79 416.97 C 474.37 417.01 473.55 417.10 473.13 417.14 C 472.97 424.54 472.54 432.01 473.59 439.37 C 474.90 439.98 476.23 440.60 477.53 441.26 C 478.52 441.78 479.51 442.32 480.50 442.88 C 472.85 443.08 465.19 443.00 457.54 442.95 C 458.50 442.35 459.46 441.76 460.43 441.19 C 461.80 440.35 463.26 439.55 464.28 438.28 C 465.73 430.60 464.76 422.75 464.97 415.00 C 464.77 407.56 465.72 400.02 464.28 392.66 C 463.69 390.28 461.09 389.62 459.33 388.36 C 458.88 388.03 457.98 387.36 457.53 387.03 M 474.33 390.20 L 475.11 390.94 L 473.77 390.95 L 473.79 392.15 L 473.46 391.12 C 472.51 398.71 473.13 406.40 473.07 414.03 C 475.85 414.06 478.66 413.95 481.35 413.14 C 481.77 413.06 482.61 412.90 483.03 412.82 L 483.81 413.29 L 484.79 412.85 L 484.94 411.96 C 488.46 411.56 492.16 408.46 492.10 404.71 C 493.99 404.07 493.93 399.00 491.97 398.41 C 491.60 394.15 487.16 391.48 483.30 390.86 C 480.44 389.66 477.32 389.83 474.33 390.20 Z" />
<path fill="#000000" opacity="1.00" d=" M 568.55 387.23 C 583.70 386.86 598.86 387.11 614.01 387.10 C 614.02 391.63 613.99 396.16 613.89 400.70 C 612.12 398.79 611.08 396.40 609.75 394.22 C 608.45 391.97 605.80 391.18 603.43 390.68 C 598.29 389.60 592.89 389.47 587.78 390.75 C 586.89 391.17 586.15 391.78 585.58 392.58 C 584.48 399.27 584.97 406.10 585.15 412.85 C 590.53 413.08 596.02 413.50 601.32 412.23 C 604.03 411.72 605.83 409.54 607.22 407.33 C 607.79 406.49 608.37 405.65 608.96 404.83 C 609.15 411.49 608.93 418.16 608.98 424.83 C 606.85 422.06 606.26 417.66 602.40 416.67 C 596.72 415.48 590.88 415.99 585.13 416.11 C 585.08 423.82 584.37 431.63 585.64 439.28 C 585.90 439.55 586.43 440.08 586.69 440.35 C 592.18 441.46 597.89 441.36 603.38 440.28 C 607.52 439.62 611.53 437.44 613.67 433.73 C 615.07 432.05 615.54 428.91 618.23 429.06 C 618.14 429.48 617.97 430.31 617.88 430.73 C 617.85 431.29 617.79 432.40 617.76 432.96 C 617.56 433.46 617.17 434.47 616.98 434.97 C 616.93 435.44 616.83 436.38 616.79 436.86 C 616.58 437.35 616.18 438.33 615.97 438.82 C 615.89 440.37 615.23 441.80 614.79 443.27 C 599.29 442.62 583.73 443.26 568.21 442.96 C 569.48 442.33 570.81 442.04 572.20 442.09 C 572.69 441.92 573.67 441.58 574.16 441.41 C 574.81 440.61 575.46 439.81 576.11 439.01 C 577.84 432.48 576.78 425.66 576.99 419.00 C 576.76 409.84 577.67 400.61 576.36 391.50 C 574.05 389.48 570.34 389.76 568.55 387.23 Z" />
<path fill="#000000" opacity="1.00" d=" M 685.95 387.25 C 700.72 386.95 715.53 386.87 730.30 387.29 C 729.78 391.11 730.08 394.97 730.05 398.81 C 729.59 398.60 728.67 398.19 728.21 397.98 C 726.84 394.52 724.32 391.24 720.38 390.74 C 715.23 389.57 709.81 389.49 704.67 390.72 C 703.19 391.16 701.79 392.30 702.04 394.00 C 701.84 399.98 701.85 405.99 702.05 411.97 L 702.14 412.92 C 707.23 413.19 712.41 413.34 717.44 412.32 C 719.99 411.89 721.69 409.81 723.50 408.16 C 723.65 407.66 723.96 406.66 724.12 406.16 C 723.75 404.85 724.29 404.08 725.75 403.85 C 726.04 410.77 726.12 417.71 725.71 424.62 C 722.91 422.26 722.75 417.28 718.47 416.64 C 713.08 415.61 707.56 415.90 702.12 416.08 L 702.03 417.03 C 702.04 424.79 701.41 432.65 702.51 440.36 C 708.11 441.43 713.85 441.24 719.44 440.27 C 720.10 440.22 721.42 440.12 722.08 440.07 C 722.59 439.92 723.60 439.62 724.11 439.47 C 727.79 436.90 730.86 433.54 732.58 429.35 C 733.28 429.29 734.68 429.16 735.38 429.10 C 735.17 429.56 734.76 430.49 734.55 430.95 C 734.41 431.47 734.13 432.51 734.00 433.03 C 733.95 433.49 733.85 434.40 733.80 434.86 C 733.57 435.34 733.10 436.29 732.86 436.77 C 732.72 438.64 732.36 440.48 732.20 442.36 C 723.18 443.61 714.07 442.85 705.00 443.03 C 698.50 443.14 692.00 443.05 685.51 442.70 C 687.95 441.93 690.43 441.11 692.55 439.61 C 693.44 431.10 692.83 422.53 692.99 414.00 C 692.83 406.55 693.48 399.06 692.48 391.66 C 691.60 390.97 690.75 390.27 689.91 389.57 C 689.16 388.75 688.25 388.47 687.19 388.76 L 686.22 388.89 C 686.15 388.48 686.02 387.66 685.95 387.25 Z" />
<path fill="#000000" opacity="1.00" d=" M 739.49 387.32 C 748.04 387.03 756.71 386.63 765.23 387.48 C 766.67 387.93 768.18 388.17 769.71 388.08 C 775.44 388.16 782.50 391.38 783.86 397.40 C 783.82 398.66 784.09 399.91 784.59 401.09 L 784.57 401.92 C 784.07 403.10 783.82 404.36 783.91 405.65 C 783.42 410.63 778.35 414.14 773.75 414.96 C 773.24 415.08 772.22 415.32 771.71 415.45 C 771.31 415.82 770.50 416.58 770.10 416.95 C 775.43 423.59 780.85 430.16 786.19 436.79 C 788.40 439.69 792.04 440.75 794.76 443.04 C 790.00 443.07 785.23 442.71 780.50 443.29 C 774.13 435.06 767.96 426.67 761.62 418.42 C 760.54 416.40 757.99 416.94 756.12 417.00 L 755.19 417.10 C 754.85 424.16 754.45 431.32 755.71 438.31 C 756.78 439.93 758.79 440.45 760.43 441.32 C 761.47 441.81 762.51 442.33 763.55 442.87 C 755.48 443.16 747.40 442.86 739.33 443.06 C 741.05 441.17 743.75 441.07 745.88 439.87 C 747.31 438.30 746.93 435.99 747.08 434.05 C 747.03 421.34 747.05 408.64 747.08 395.94 C 746.89 394.06 747.32 391.63 745.62 390.34 C 743.63 389.21 741.38 388.62 739.49 387.32 M 756.76 390.82 L 755.79 390.80 L 755.84 391.75 C 754.10 398.98 755.42 406.58 755.15 413.96 C 758.20 414.06 761.38 414.43 764.27 413.15 C 768.84 412.37 774.77 409.98 775.00 404.58 C 776.97 404.40 776.97 399.60 775.02 399.40 C 775.11 394.72 770.52 391.50 766.30 390.87 C 763.26 389.66 759.76 389.39 756.76 390.82 Z" />
<path fill="#000000" opacity="1.00" d=" M 956.98 387.09 C 971.99 387.04 987.00 387.02 1002.02 387.09 C 1002.01 391.61 1001.98 396.13 1001.92 400.66 C 998.99 396.77 997.20 390.94 991.43 390.68 C 986.56 389.65 981.47 389.52 976.63 390.69 C 975.48 391.09 974.47 391.78 973.46 392.40 C 972.70 399.19 972.86 406.03 973.15 412.84 C 978.53 413.08 984.02 413.50 989.32 412.23 C 991.67 411.70 993.83 410.32 995.01 408.17 C 995.71 407.07 996.38 405.95 997.07 404.84 C 997.13 411.51 997.02 418.19 996.91 424.87 C 996.70 424.35 996.28 423.30 996.08 422.77 C 995.94 422.26 995.66 421.24 995.52 420.73 C 993.96 419.21 992.59 417.28 990.41 416.65 C 984.72 415.50 978.89 415.99 973.14 416.11 C 973.05 423.85 972.42 431.66 973.61 439.34 C 973.89 439.59 974.44 440.09 974.72 440.35 C 980.20 441.47 985.90 441.36 991.39 440.28 C 995.52 439.62 999.53 437.43 1001.67 433.73 C 1003.07 432.06 1003.54 428.95 1006.22 429.06 C 1006.14 429.48 1005.97 430.31 1005.89 430.73 C 1005.86 431.29 1005.81 432.42 1005.78 432.98 C 1005.58 433.48 1005.17 434.48 1004.97 434.98 C 1004.92 435.45 1004.84 436.38 1004.80 436.85 C 1004.60 437.35 1004.22 438.34 1004.03 438.84 L 1003.95 439.66 C 1003.50 440.72 1003.04 441.78 1002.58 442.83 C 987.13 443.29 971.66 442.91 956.21 442.96 C 957.48 442.33 958.82 442.04 960.23 442.10 C 960.71 441.91 961.67 441.53 962.15 441.34 C 962.86 440.32 963.63 439.34 964.28 438.27 C 965.63 431.94 964.83 425.42 965.00 419.00 C 964.64 410.25 965.84 401.38 964.28 392.72 C 963.62 391.63 962.84 390.64 962.13 389.61 C 961.65 389.42 960.68 389.03 960.20 388.83 C 959.44 388.92 957.94 389.11 957.19 389.20 C 957.13 388.67 957.03 387.62 956.98 387.09 Z" />
<path fill="#000000" opacity="1.00" d=" M 1011.71 387.06 C 1016.45 387.04 1021.19 387.04 1025.94 387.06 C 1036.78 399.91 1046.69 413.53 1057.76 426.19 C 1058.04 426.51 1058.61 427.16 1058.89 427.48 C 1058.84 415.46 1059.57 403.38 1058.46 391.41 C 1056.27 389.96 1053.73 389.33 1051.27 388.57 C 1051.14 388.20 1050.88 387.45 1050.75 387.08 C 1057.25 387.04 1063.75 387.04 1070.25 387.08 C 1070.12 387.45 1069.86 388.20 1069.73 388.57 C 1067.35 389.52 1064.39 389.54 1062.66 391.65 C 1061.38 398.36 1062.18 405.22 1062.01 412.00 C 1061.82 422.91 1062.44 433.84 1061.58 444.73 C 1048.50 429.66 1036.68 413.52 1023.74 398.33 C 1022.21 404.10 1023.23 410.11 1023.03 416.00 C 1023.24 423.44 1022.28 430.97 1023.71 438.33 C 1024.83 441.59 1028.74 441.68 1031.50 442.60 C 1024.88 443.19 1018.19 443.48 1011.61 442.38 C 1012.26 442.33 1013.56 442.22 1014.21 442.17 C 1015.28 442.40 1016.19 442.13 1016.94 441.36 C 1017.73 440.64 1018.55 439.93 1019.39 439.24 C 1020.64 430.89 1019.75 422.41 1019.99 414.00 C 1019.79 406.91 1020.64 399.73 1019.36 392.71 C 1017.69 390.35 1014.86 389.54 1012.33 388.51 C 1012.18 388.15 1011.87 387.42 1011.71 387.06 Z" />
<path fill="#000000" opacity="1.00" d=" M 624.22 388.00 C 632.19 388.25 640.26 387.30 648.16 388.69 L 646.95 388.73 C 645.84 388.54 644.91 388.84 644.15 389.61 C 643.31 390.33 642.47 391.04 641.63 391.74 C 640.47 399.07 641.05 406.53 641.11 413.92 C 641.68 413.44 642.26 412.96 642.85 412.49 C 649.74 406.30 657.08 400.44 662.55 392.87 C 663.64 392.19 663.58 390.35 662.11 390.27 C 660.11 389.51 658.09 388.78 656.14 387.94 C 664.00 388.03 671.86 388.04 679.72 387.94 C 675.70 389.71 671.21 390.82 668.05 394.07 C 662.14 399.98 655.86 405.52 650.21 411.68 C 657.88 419.72 665.27 428.02 672.99 436.01 C 674.95 438.09 677.24 439.84 679.80 441.14 C 680.93 441.75 682.07 442.37 683.22 442.99 C 674.80 442.92 666.26 443.81 657.94 442.20 L 659.15 442.24 C 660.29 442.51 661.19 442.20 661.84 441.29 C 662.23 440.75 663.01 439.68 663.41 439.15 C 658.43 431.74 652.09 425.42 645.78 419.17 C 644.63 418.15 643.34 416.49 641.68 417.61 C 640.42 424.79 640.76 432.20 641.58 439.41 C 642.62 440.00 643.66 440.60 644.72 441.17 C 645.88 441.79 647.05 442.39 648.22 443.01 C 640.31 443.14 632.38 443.17 624.48 442.78 L 625.54 442.56 C 626.72 442.39 627.95 442.16 628.92 441.39 C 630.16 440.52 631.61 439.82 632.47 438.51 C 633.62 429.73 632.73 420.83 633.00 412.00 C 632.70 405.32 633.82 398.47 632.19 391.90 C 631.51 391.11 630.83 390.33 630.14 389.56 C 629.64 389.40 628.65 389.09 628.15 388.93 C 626.78 388.97 625.47 388.66 624.22 388.00 Z" />
<path fill="#000000" opacity="1.00" d=" M 800.15 387.96 C 809.01 388.06 817.88 387.94 826.75 388.00 C 825.97 388.22 824.40 388.66 823.62 388.88 C 822.56 388.58 821.65 388.79 820.89 389.51 C 819.74 390.48 818.47 391.34 817.60 392.59 C 816.44 399.33 817.15 406.20 817.01 413.00 C 817.18 421.51 816.48 430.06 817.51 438.53 C 818.67 439.50 819.85 440.44 821.02 441.42 C 821.76 442.15 822.67 442.38 823.73 442.10 C 824.49 442.32 826.02 442.74 826.78 442.95 C 818.14 442.80 809.43 443.75 800.87 442.25 L 802.01 442.25 C 803.08 442.43 804.04 442.19 804.89 441.52 C 806.49 440.31 809.03 439.43 808.91 437.00 C 809.29 424.00 808.91 410.98 809.09 397.97 C 808.90 395.69 809.50 392.96 807.85 391.10 C 805.61 389.40 802.68 389.06 800.15 387.96 Z" />
</g>
<g id="#29292987">
<path fill="#292929" opacity="0.53" d=" M 1259.93 6.09 C 1260.17 5.54 1260.64 4.45 1260.87 3.90 C 1260.64 4.45 1260.17 5.54 1259.93 6.09 Z" />
<path fill="#292929" opacity="0.53" d=" M 933.84 442.87 C 934.33 442.65 935.30 442.20 935.79 441.97 L 935.63 442.86 L 934.63 443.32 L 933.84 442.87 Z" />
</g>
<g id="#2e2e2e70">
<path fill="#2e2e2e" opacity="0.44" d=" M 1259.08 9.09 C 1259.32 8.55 1259.82 7.46 1260.06 6.92 C 1259.82 7.46 1259.32 8.55 1259.08 9.09 Z" />
<path fill="#2e2e2e" opacity="0.44" d=" M 524.78 391.52 C 525.28 391.35 526.28 391.02 526.78 390.85 L 526.54 391.72 L 525.52 392.07 L 524.78 391.52 Z" />
<path fill="#2e2e2e" opacity="0.44" d=" M 895.12 424.81 C 895.36 425.29 895.83 426.25 896.07 426.73 L 895.17 426.60 L 894.69 425.62 L 895.12 424.81 Z" />
<path fill="#2e2e2e" opacity="0.44" d=" M 372.86 432.86 C 373.07 432.37 373.47 431.40 373.67 430.91 L 374.18 431.68 L 373.76 432.68 L 372.86 432.86 Z" />
<path fill="#2e2e2e" opacity="0.44" d=" M 553.42 439.22 L 554.47 438.95 L 555.16 439.56 C 554.65 439.69 553.62 439.94 553.11 440.07 L 553.42 439.22 Z" />
</g>
<g id="#2b2b2b8f">
<path fill="#2b2b2b" opacity="0.56" d=" M 1255.93 19.07 C 1256.18 18.53 1256.68 17.44 1256.93 16.90 C 1256.68 17.44 1256.18 18.53 1255.93 19.07 Z" />
<path fill="#2b2b2b" opacity="0.56" d=" M 1246.93 48.07 C 1247.18 47.53 1247.68 46.44 1247.93 45.89 C 1247.68 46.44 1247.18 47.53 1246.93 48.07 Z" />
<path fill="#2b2b2b" opacity="0.56" d=" M 1237.48 76.46 C 1237.79 76.11 1238.40 75.42 1238.71 75.07 C 1238.50 75.60 1238.08 76.66 1237.87 77.19 L 1237.48 76.46 Z" />
<path fill="#2b2b2b" opacity="0.56" d=" M 960.20 388.83 C 960.68 389.03 961.65 389.42 962.13 389.61 C 961.70 389.63 960.82 389.68 960.39 389.70 L 960.20 388.83 Z" />
<path fill="#2b2b2b" opacity="0.56" d=" M 722.36 439.20 L 723.40 438.89 L 724.11 439.47 C 723.60 439.62 722.59 439.92 722.08 440.07 L 722.36 439.20 Z" />
</g>
<g id="#2d2d2d80">
<path fill="#2d2d2d" opacity="0.50" d=" M 1254.98 22.05 C 1255.24 21.52 1255.77 20.46 1256.04 19.92 C 1255.77 20.46 1255.24 21.52 1254.98 22.05 Z" />
<path fill="#2d2d2d" opacity="0.50" d=" M 1245.98 51.05 C 1246.24 50.52 1246.77 49.45 1247.04 48.92 C 1246.77 49.45 1246.24 50.52 1245.98 51.05 Z" />
<path fill="#2d2d2d" opacity="0.50" d=" M 500.95 397.09 L 501.84 397.24 L 502.30 398.22 L 501.84 399.00 C 501.61 398.52 501.17 397.57 500.95 397.09 Z" />
<path fill="#2d2d2d" opacity="0.50" d=" M 448.12 442.04 C 448.24 441.53 448.46 440.51 448.58 439.99 L 449.16 440.66 C 448.90 441.00 448.38 441.69 448.12 442.04 Z" />
</g>
<g id="#2d2d2d6f">
<path fill="#2d2d2d" opacity="0.44" d=" M 1254.09 25.08 C 1254.34 24.54 1254.84 23.45 1255.09 22.90 C 1254.84 23.45 1254.34 24.54 1254.09 25.08 Z" />
<path fill="#2d2d2d" opacity="0.44" d=" M 1250.07 38.09 C 1250.32 37.54 1250.81 36.46 1251.06 35.91 C 1250.81 36.46 1250.32 37.54 1250.07 38.09 Z" />
<path fill="#2d2d2d" opacity="0.44" d=" M 1241.11 67.10 C 1241.35 66.55 1241.82 65.46 1242.06 64.91 C 1241.82 65.46 1241.35 66.55 1241.11 67.10 Z" />
<path fill="#2d2d2d" opacity="0.44" d=" M 383.32 394.26 L 384.19 393.99 C 384.02 394.49 383.68 395.48 383.51 395.98 L 382.98 395.27 L 383.32 394.26 Z" />
</g>
<g id="#2a2a2a87">
<path fill="#2a2a2a" opacity="0.53" d=" M 1250.94 35.08 C 1251.19 34.53 1251.69 33.45 1251.94 32.91 C 1251.69 33.45 1251.19 34.53 1250.94 35.08 Z" />
<path fill="#2a2a2a" opacity="0.53" d=" M 1241.94 64.07 C 1242.19 63.53 1242.69 62.45 1242.94 61.91 C 1242.69 62.45 1242.19 63.53 1241.94 64.07 Z" />
<path fill="#2a2a2a" opacity="0.53" d=" M 912.22 442.00 C 912.71 442.22 913.68 442.66 914.17 442.88 L 913.37 443.34 L 912.38 442.88 L 912.22 442.00 Z" />
</g>
<g id="#2e2e2e6f">
<path fill="#2e2e2e" opacity="0.44" d=" M 1245.09 54.08 C 1245.34 53.54 1245.84 52.44 1246.08 51.90 C 1245.84 52.44 1245.34 53.54 1245.09 54.08 Z" />
<path fill="#2e2e2e" opacity="0.44" d=" M 771.71 415.45 C 772.22 415.32 773.24 415.08 773.75 414.96 L 773.44 415.80 L 772.40 416.05 L 771.71 415.45 Z" />
<path fill="#2e2e2e" opacity="0.44" d=" M 917.05 439.56 L 917.74 438.96 L 918.82 439.21 L 919.17 440.05 C 918.64 439.93 917.58 439.68 917.05 439.56 Z" />
</g>
<g id="#1d1d1d28">
<path fill="#1d1d1d" opacity="0.16" d=" M 1238.37 77.84 C 1242.29 78.13 1246.22 78.01 1250.16 78.15 C 1246.37 79.04 1241.80 80.34 1238.37 77.84 Z" />
<path fill="#1d1d1d" opacity="0.16" d=" M 929.58 412.56 C 934.32 411.55 939.19 412.03 944.00 411.90 C 946.55 411.99 949.36 411.51 951.59 413.10 C 944.60 412.82 937.60 413.19 930.61 412.87 L 929.58 412.56 Z" />
</g>
<g id="#018d36ff">
<path fill="#018d36" opacity="1.00" d=" M 0.00 88.29 C 49.50 88.34 99.00 88.21 148.49 88.35 C 148.48 90.87 148.49 93.39 148.52 95.92 C 142.39 96.54 136.23 96.86 130.16 97.97 C 128.86 97.45 127.78 97.74 126.92 98.85 C 116.46 101.76 106.85 109.07 103.64 119.79 C 103.45 120.37 103.09 121.52 102.90 122.10 C 101.87 128.69 102.23 135.36 102.20 142.00 C 102.20 200.33 102.20 258.67 102.20 317.00 C 101.92 334.35 102.92 351.77 106.15 368.84 C 106.35 369.41 106.74 370.56 106.94 371.14 C 106.93 371.59 106.90 372.50 106.89 372.96 C 107.17 373.49 107.73 374.56 108.02 375.10 C 107.98 375.54 107.92 376.44 107.89 376.88 C 108.12 377.44 108.58 378.56 108.81 379.12 C 110.82 386.01 113.38 392.78 116.97 399.02 C 123.58 411.09 134.32 420.61 146.90 426.10 C 147.45 426.33 148.56 426.80 149.11 427.04 C 151.35 427.78 153.60 428.52 155.86 429.23 C 156.43 429.44 157.56 429.87 158.13 430.09 L 159.01 430.00 C 159.54 430.28 160.62 430.83 161.15 431.10 C 161.62 431.04 162.55 430.91 163.02 430.85 C 163.64 432.18 164.68 432.54 166.14 431.91 C 185.95 435.00 206.24 434.72 225.94 430.95 C 226.49 430.71 227.60 430.24 228.15 430.01 C 228.59 430.04 229.48 430.10 229.92 430.13 C 230.45 429.85 231.51 429.30 232.05 429.03 L 232.91 429.13 C 233.46 428.89 234.56 428.40 235.11 428.15 C 236.38 427.80 237.66 427.45 238.94 427.10 C 239.49 426.87 240.60 426.41 241.16 426.17 C 250.17 422.53 258.68 417.49 265.74 410.76 C 277.40 399.67 284.54 384.64 288.25 369.15 C 288.47 368.57 288.91 367.43 289.13 366.86 C 289.05 366.39 288.90 365.46 288.82 365.00 C 290.14 364.40 290.52 363.38 289.97 361.92 C 293.05 343.46 293.42 324.68 293.30 306.00 C 293.30 251.34 293.28 196.68 293.31 142.02 C 293.32 137.68 292.67 133.38 291.94 129.11 C 291.76 128.54 291.40 127.39 291.22 126.82 C 289.91 123.25 288.52 119.69 286.52 116.45 C 281.17 107.56 272.05 101.47 262.18 98.65 C 261.61 98.46 260.45 98.09 259.88 97.90 L 259.04 98.06 C 258.30 96.95 257.29 96.56 256.00 96.89 C 251.75 96.89 247.51 96.42 243.29 95.97 C 243.29 93.42 243.29 90.87 243.29 88.32 C 316.74 88.29 390.20 88.26 463.65 88.34 C 504.50 139.48 545.40 190.58 586.29 241.70 C 596.02 253.55 605.17 265.91 615.26 277.46 C 615.71 271.99 615.51 266.49 615.53 261.00 C 615.53 236.00 615.53 211.00 615.53 186.00 C 615.35 164.33 615.91 142.63 615.21 120.96 C 615.51 119.72 615.18 118.68 614.21 117.85 C 611.35 107.60 602.36 100.18 592.22 97.69 C 591.64 97.52 590.49 97.19 589.91 97.03 C 585.55 96.46 581.18 95.99 576.80 95.73 C 576.82 93.26 576.85 90.79 576.89 88.32 C 692.05 88.25 807.20 88.33 922.36 88.28 C 922.50 91.68 922.50 95.10 922.26 98.50 C 915.62 98.43 908.92 98.42 902.40 99.74 C 899.15 100.50 895.53 101.69 893.78 104.77 C 892.03 107.87 892.62 111.55 892.77 114.94 C 893.02 115.49 893.51 116.60 893.76 117.15 C 896.14 125.32 899.65 133.09 902.97 140.91 C 903.22 141.45 903.72 142.54 903.97 143.09 C 906.64 149.03 909.33 154.96 912.00 160.90 C 912.24 161.45 912.73 162.54 912.97 163.09 C 917.01 172.01 920.98 180.96 924.99 189.90 C 925.23 190.45 925.72 191.54 925.96 192.09 C 930.01 201.01 933.99 209.96 937.99 218.91 C 938.23 219.46 938.72 220.55 938.97 221.09 C 942.99 230.02 947.00 238.96 950.99 247.90 C 951.24 248.45 951.73 249.54 951.98 250.08 C 956.00 259.01 959.99 267.95 963.99 276.90 C 964.23 277.45 964.72 278.54 964.97 279.09 C 966.39 282.28 967.83 285.47 969.39 288.60 C 973.96 278.28 977.79 267.65 982.06 257.21 C 994.86 224.95 1007.67 192.69 1020.46 160.43 C 1024.67 149.32 1029.73 138.52 1033.16 127.12 C 1033.41 126.57 1033.92 125.47 1034.17 124.92 C 1034.13 124.48 1034.06 123.59 1034.03 123.15 C 1034.29 122.61 1034.82 121.52 1035.08 120.98 C 1035.94 115.24 1036.90 108.25 1032.11 103.89 C 1025.07 97.78 1015.03 98.57 1006.34 98.46 C 1006.29 95.08 1006.29 91.69 1006.30 88.31 C 1123.69 88.31 1241.09 88.24 1358.48 88.34 C 1358.44 114.47 1358.52 140.61 1358.44 166.74 C 1357.15 166.70 1355.88 166.68 1354.63 166.68 C 1354.32 165.52 1354.02 164.35 1353.74 163.19 C 1353.60 162.60 1353.32 161.42 1353.18 160.83 C 1353.14 160.16 1353.08 158.84 1353.05 158.17 C 1352.82 157.61 1352.38 156.48 1352.16 155.92 C 1349.86 146.60 1346.46 137.27 1340.18 129.85 C 1333.81 122.15 1324.58 117.40 1315.08 114.76 C 1314.52 114.53 1313.39 114.09 1312.82 113.87 C 1312.37 113.95 1311.46 114.11 1311.01 114.19 C 1310.44 112.87 1309.44 112.47 1308.00 112.99 C 1293.76 110.84 1279.34 111.59 1265.00 111.47 C 1249.00 111.46 1233.00 111.48 1217.00 111.46 C 1210.89 111.59 1204.30 110.74 1198.71 113.74 C 1193.38 116.75 1192.19 123.40 1192.18 129.00 C 1192.21 168.07 1192.17 207.14 1192.21 246.21 C 1215.14 246.43 1238.07 246.23 1261.00 246.31 C 1271.33 246.37 1281.70 245.91 1291.88 243.96 C 1292.44 243.75 1293.55 243.33 1294.11 243.11 C 1295.37 242.77 1296.65 242.41 1297.94 242.07 C 1298.51 241.86 1299.63 241.44 1300.20 241.22 C 1310.55 237.02 1318.24 227.85 1321.25 217.17 C 1321.42 216.59 1321.77 215.43 1321.94 214.86 C 1323.27 208.35 1323.85 201.72 1323.96 195.08 C 1325.33 195.08 1326.72 195.09 1328.12 195.10 C 1328.24 236.46 1328.23 277.82 1328.13 319.19 C 1326.73 319.17 1325.35 319.15 1323.98 319.15 C 1323.72 307.56 1322.39 295.25 1315.50 285.53 C 1310.12 277.63 1301.19 273.03 1292.13 270.76 C 1291.55 270.57 1290.40 270.18 1289.82 269.99 C 1288.59 269.93 1287.38 269.87 1286.17 269.81 C 1285.28 268.73 1284.19 268.46 1282.91 269.01 C 1276.95 268.55 1270.97 268.12 1265.00 268.18 C 1240.74 268.24 1216.49 268.13 1192.23 268.23 C 1192.14 304.49 1192.22 340.75 1192.19 377.00 C 1192.37 386.95 1191.64 396.95 1192.95 406.85 C 1193.23 407.39 1193.77 408.47 1194.04 409.00 L 1193.93 409.86 C 1194.13 410.43 1194.51 411.58 1194.70 412.15 C 1196.93 416.51 1200.48 421.10 1205.91 420.98 C 1219.93 421.30 1233.97 421.00 1248.00 421.10 C 1270.64 420.86 1293.41 421.98 1315.92 418.98 C 1317.36 419.52 1318.39 419.14 1318.99 417.82 C 1319.45 417.90 1320.37 418.06 1320.83 418.14 C 1321.39 417.92 1322.52 417.48 1323.09 417.26 C 1336.58 413.96 1348.92 406.53 1358.42 396.45 C 1370.91 383.25 1379.47 366.91 1386.45 350.27 C 1388.96 350.15 1391.47 350.03 1394.00 349.88 L 1394.00 352.36 C 1393.21 354.54 1392.46 356.73 1391.79 358.95 C 1391.58 359.51 1391.16 360.65 1390.95 361.22 C 1390.97 361.66 1391.02 362.56 1391.04 363.01 C 1390.75 363.53 1390.17 364.59 1389.88 365.12 C 1389.90 365.58 1389.96 366.49 1389.99 366.95 C 1389.71 367.49 1389.17 368.57 1388.90 369.12 C 1388.93 369.57 1388.99 370.48 1389.02 370.94 C 1388.74 371.47 1388.17 372.54 1387.89 373.07 C 1387.91 373.53 1387.96 374.44 1387.98 374.89 C 1387.70 375.43 1387.14 376.51 1386.87 377.05 C 1386.89 377.51 1386.93 378.43 1386.95 378.89 C 1386.69 379.44 1386.17 380.54 1385.91 381.08 L 1386.02 381.93 C 1384.78 382.71 1384.41 383.78 1384.91 385.13 L 1385.11 386.00 C 1383.81 386.59 1383.41 387.60 1383.90 389.04 L 1383.99 389.92 C 1383.73 390.47 1383.20 391.58 1382.94 392.13 C 1382.96 392.59 1383.02 393.52 1383.04 393.98 C 1382.76 394.52 1382.19 395.59 1381.90 396.12 C 1381.93 396.58 1381.98 397.50 1382.00 397.96 C 1381.72 398.50 1381.16 399.57 1380.87 400.11 C 1380.90 400.56 1380.96 401.48 1380.98 401.94 C 1380.70 402.48 1380.14 403.55 1379.86 404.09 C 1379.89 404.54 1379.95 405.45 1379.98 405.90 C 1379.70 406.44 1379.15 407.52 1378.88 408.06 C 1378.90 408.52 1378.95 409.43 1378.97 409.89 C 1378.71 410.43 1378.19 411.53 1377.93 412.07 L 1378.05 412.91 C 1376.82 413.67 1376.46 414.74 1376.97 416.10 C 1376.63 417.75 1376.30 419.41 1375.98 421.08 C 1375.71 421.62 1375.16 422.68 1374.88 423.22 C 1374.91 423.67 1374.98 424.56 1375.01 425.01 C 1374.73 425.54 1374.17 426.61 1373.89 427.15 C 1373.91 427.60 1373.97 428.51 1374.00 428.96 C 1373.72 429.50 1373.17 430.58 1372.89 431.12 C 1372.92 431.57 1372.98 432.49 1373.01 432.95 C 1372.73 433.48 1372.18 434.56 1371.90 435.09 C 1371.93 435.55 1372.00 436.45 1372.03 436.91 C 1371.76 437.45 1371.22 438.55 1370.95 439.10 C 1370.98 439.60 1371.04 440.59 1371.07 441.09 C 1370.74 441.31 1370.10 441.75 1369.77 441.97 L 1369.91 442.81 C 1276.95 443.00 1183.99 442.86 1091.03 442.88 C 1091.05 441.00 1091.08 439.12 1091.12 437.25 C 1096.74 437.10 1102.36 436.67 1107.95 436.03 C 1109.40 436.55 1110.43 436.15 1111.02 434.83 C 1111.48 434.90 1112.40 435.04 1112.86 435.10 C 1113.40 434.83 1114.47 434.29 1115.01 434.02 L 1115.88 434.11 C 1116.44 433.88 1117.56 433.43 1118.12 433.20 C 1123.91 430.78 1129.59 427.42 1133.11 422.05 C 1136.49 417.08 1137.86 411.00 1137.82 405.05 C 1137.79 320.04 1137.82 235.02 1137.81 150.00 C 1137.60 140.73 1138.40 131.39 1137.04 122.17 C 1136.85 121.59 1136.46 120.44 1136.27 119.87 C 1132.55 109.45 1122.44 103.28 1112.13 100.82 C 1111.20 99.73 1110.10 99.50 1108.84 100.12 C 1100.67 98.87 1092.37 98.26 1084.14 99.09 C 1082.85 98.50 1081.75 98.73 1080.84 99.80 C 1069.78 102.74 1061.24 111.48 1056.95 121.88 C 1040.77 160.34 1025.23 199.05 1009.88 237.84 C 1009.66 238.40 1009.21 239.51 1008.99 240.07 C 1001.89 257.97 994.86 275.90 987.88 293.84 C 987.66 294.40 987.20 295.51 986.98 296.06 C 978.62 317.26 970.72 338.64 962.17 359.76 C 959.73 359.62 957.29 359.13 955.53 357.31 L 955.98 356.61 C 955.78 356.22 955.36 355.45 955.16 355.06 C 954.07 352.75 953.03 350.43 952.01 348.10 C 951.76 347.56 951.26 346.47 951.01 345.92 C 944.34 330.98 937.68 316.03 931.02 301.09 C 930.77 300.55 930.27 299.46 930.02 298.91 C 929.02 296.64 928.01 294.36 927.01 292.09 C 926.76 291.55 926.26 290.46 926.01 289.92 C 919.33 274.98 912.69 260.03 906.00 245.10 C 905.76 244.55 905.28 243.45 905.04 242.91 C 896.98 224.99 889.04 207.02 881.00 189.10 C 880.76 188.55 880.28 187.45 880.04 186.91 C 871.49 168.06 863.30 149.04 854.64 130.25 C 848.42 117.47 840.33 103.68 826.12 98.79 C 825.28 97.81 824.25 97.46 823.02 97.75 C 817.38 97.43 811.72 97.31 806.10 97.96 C 804.81 97.44 803.72 97.71 802.84 98.77 C 793.08 100.95 784.65 108.10 781.70 117.77 C 781.53 118.35 781.18 119.51 781.01 120.09 C 779.42 128.30 779.97 136.69 779.90 145.00 C 779.88 205.02 779.93 265.05 779.88 325.07 C 779.54 326.20 779.73 327.25 780.45 328.20 C 781.74 330.92 782.82 333.84 784.90 336.09 C 787.35 338.83 790.66 340.54 793.86 342.25 C 794.43 342.44 795.57 342.82 796.15 343.01 C 803.52 345.30 811.26 345.86 818.95 345.92 C 818.92 348.52 818.90 351.11 818.90 353.71 C 779.10 353.64 739.30 353.77 699.51 353.65 C 699.51 351.13 699.50 348.62 699.48 346.12 C 704.60 345.79 709.73 345.50 714.84 344.92 C 716.11 345.51 717.21 345.27 718.14 344.19 C 723.48 342.81 729.00 341.00 732.99 336.98 C 735.58 334.63 737.04 331.40 738.37 328.24 C 738.47 327.64 738.67 326.44 738.77 325.84 C 739.40 315.57 738.99 305.28 739.10 295.00 C 739.11 239.67 739.09 184.33 739.12 129.00 C 739.06 122.93 739.55 116.55 737.11 110.84 C 734.38 104.73 728.38 100.79 722.17 98.84 C 711.14 95.33 699.42 95.92 688.00 95.90 C 678.36 96.00 668.67 95.39 659.11 96.98 C 657.81 96.45 656.72 96.73 655.84 97.81 C 649.51 99.75 643.33 102.92 639.18 108.24 C 636.63 111.34 635.14 115.11 633.78 118.84 C 632.72 119.77 632.49 120.87 633.09 122.14 C 632.55 201.36 633.21 280.60 632.76 359.82 C 630.54 359.53 627.90 359.64 626.58 357.46 C 580.38 299.65 534.14 241.87 487.93 184.08 C 475.86 169.21 464.22 153.99 451.88 139.36 C 451.47 167.23 451.82 195.12 451.71 223.00 C 451.79 253.67 451.52 284.34 451.85 315.01 C 451.55 316.30 451.95 317.30 453.07 318.03 L 452.93 318.87 C 453.13 319.45 453.53 320.59 453.72 321.17 C 457.06 332.11 465.80 341.08 476.86 344.25 C 477.44 344.42 478.61 344.75 479.19 344.92 C 482.92 345.43 486.67 345.79 490.44 346.02 C 490.44 348.58 490.41 351.14 490.34 353.71 C 458.53 353.68 426.71 353.71 394.89 353.69 C 394.85 351.17 394.82 348.64 394.81 346.12 C 398.51 345.79 402.21 345.44 405.90 345.01 C 406.47 344.84 407.62 344.48 408.19 344.30 C 414.33 342.47 420.16 339.30 424.44 334.45 C 428.17 330.41 430.45 325.32 432.26 320.20 C 432.43 319.62 432.79 318.47 432.97 317.90 C 434.60 308.68 433.98 299.30 434.08 290.00 C 434.07 233.64 434.10 177.29 434.07 120.93 C 434.33 118.21 432.49 116.09 430.83 114.19 C 424.86 107.70 418.88 100.49 410.16 97.69 C 409.57 97.55 408.39 97.27 407.81 97.12 C 398.87 95.66 389.79 95.71 380.77 96.15 C 371.89 96.22 363.00 96.01 354.17 97.06 C 352.88 96.47 351.79 96.73 350.90 97.82 C 340.84 100.18 331.06 105.39 325.04 114.02 C 322.19 117.87 320.25 122.31 318.76 126.84 C 318.56 127.41 318.15 128.56 317.95 129.13 L 318.09 129.98 C 316.97 130.70 316.56 131.71 316.87 133.01 C 316.49 181.00 316.81 229.00 316.70 276.99 C 316.47 306.66 317.91 336.57 312.90 365.95 C 311.82 366.73 311.45 367.76 311.78 369.03 C 311.84 369.50 311.97 370.46 312.04 370.93 C 311.76 371.47 311.20 372.55 310.92 373.08 C 310.94 373.54 310.97 374.44 310.99 374.89 C 310.79 375.46 310.37 376.61 310.17 377.18 C 305.12 396.93 293.83 415.08 277.90 427.89 C 264.50 438.74 248.90 447.01 232.10 451.09 C 231.53 451.31 230.39 451.74 229.83 451.96 C 229.38 451.94 228.47 451.91 228.02 451.90 C 227.48 452.18 226.40 452.74 225.86 453.01 C 225.37 452.96 224.39 452.84 223.90 452.79 C 222.52 452.43 221.57 452.89 221.07 454.15 C 220.57 454.06 219.57 453.86 219.07 453.77 C 217.80 453.40 216.78 453.78 216.02 454.91 C 210.80 455.73 205.56 456.43 200.34 457.20 C 197.29 457.19 194.27 457.55 191.27 458.00 L 171.70 458.00 C 168.01 457.41 164.28 456.97 160.54 457.17 C 156.08 456.65 151.61 456.20 147.15 455.73 C 146.25 454.68 145.16 454.39 143.86 454.85 C 143.41 454.92 142.52 455.07 142.07 455.15 C 141.44 453.81 140.40 453.46 138.95 454.11 C 134.32 453.26 129.76 452.08 125.20 450.89 C 124.64 450.69 123.50 450.29 122.94 450.09 C 102.66 443.94 83.88 431.86 71.52 414.45 C 64.51 404.69 59.39 393.65 55.89 382.18 C 55.68 381.62 55.26 380.49 55.05 379.93 C 54.68 378.30 54.30 376.67 53.94 375.05 C 53.70 374.49 53.21 373.38 52.96 372.82 C 53.03 372.36 53.17 371.44 53.24 370.98 C 53.56 369.70 53.16 368.68 52.03 367.94 C 46.14 339.00 47.43 309.34 47.29 280.00 C 47.30 230.66 47.29 181.33 47.30 132.00 C 47.29 129.38 47.18 126.76 47.04 124.14 C 46.86 123.57 46.50 122.41 46.32 121.83 C 44.49 115.70 41.13 109.96 36.01 106.02 C 31.71 102.46 26.45 100.37 21.16 98.76 C 20.59 98.58 19.45 98.21 18.88 98.02 C 12.64 96.93 6.32 96.39 0.00 96.11 L 0.00 88.29 M 616.16 280.18 C 616.74 280.76 616.74 280.76 616.16 280.18 Z" />
</g>
<g id="#2c5f4087">
<path fill="#2c5f40" opacity="0.53" d=" M 256.00 96.89 C 257.29 96.56 258.30 96.95 259.04 98.06 C 257.58 98.62 256.56 98.23 256.00 96.89 Z" />
</g>
<g id="#2c5e4087">
<path fill="#2c5e40" opacity="0.53" d=" M 350.90 97.82 C 351.79 96.73 352.88 96.47 354.17 97.06 C 353.28 98.20 352.20 98.45 350.90 97.82 Z" />
</g>
<g id="#2e604187">
<path fill="#2e6041" opacity="0.53" d=" M 407.81 97.12 C 408.39 97.27 409.57 97.55 410.16 97.69 C 409.57 97.55 408.39 97.27 407.81 97.12 Z" />
<path fill="#2e6041" opacity="0.53" d=" M 476.86 344.25 C 477.44 344.42 478.61 344.75 479.19 344.92 C 478.61 344.75 477.44 344.42 476.86 344.25 Z" />
<path fill="#2e6041" opacity="0.53" d=" M 1374.88 423.22 C 1375.16 422.68 1375.71 421.62 1375.98 421.08 C 1375.71 421.62 1375.16 422.68 1374.88 423.22 Z" />
</g>
<g id="#304f3d69">
<path fill="#304f3d" opacity="0.41" d=" M 589.91 97.03 C 590.49 97.19 591.64 97.52 592.22 97.69 C 591.64 97.52 590.49 97.19 589.91 97.03 Z" />
</g>
<g id="#2b4e386b">
<path fill="#2b4e38" opacity="0.42" d=" M 655.84 97.81 C 656.72 96.73 657.81 96.45 659.11 96.98 C 658.25 98.16 657.16 98.44 655.84 97.81 Z" />
</g>
<g id="#30553d75">
<path fill="#30553d" opacity="0.46" d=" M 18.88 98.02 C 19.45 98.21 20.59 98.58 21.16 98.76 C 20.59 98.58 19.45 98.21 18.88 98.02 Z" />
</g>
<g id="#29543977">
<path fill="#295439" opacity="0.47" d=" M 126.92 98.85 C 127.78 97.74 128.86 97.45 130.16 97.97 C 129.32 99.16 128.25 99.45 126.92 98.85 Z" />
</g>
<g id="#2d443657">
<path fill="#2d4436" opacity="0.34" d=" M 259.88 97.90 C 260.45 98.09 261.61 98.46 262.18 98.65 C 261.61 98.46 260.45 98.09 259.88 97.90 Z" />
<path fill="#2d4436" opacity="0.34" d=" M 892.77 114.94 C 893.02 115.49 893.51 116.60 893.76 117.15 C 893.51 116.60 893.02 115.49 892.77 114.94 Z" />
<path fill="#2d4436" opacity="0.34" d=" M 102.90 122.10 C 103.09 121.52 103.45 120.37 103.64 119.79 C 103.45 120.37 103.09 121.52 102.90 122.10 Z" />
<path fill="#2d4436" opacity="0.34" d=" M 232.91 429.13 C 233.46 428.89 234.56 428.40 235.11 428.15 C 234.56 428.40 233.46 428.89 232.91 429.13 Z" />
</g>
<g id="#2b4f386c">
<path fill="#2b4f38" opacity="0.42" d=" M 802.84 98.77 C 803.72 97.71 804.81 97.44 806.10 97.96 C 805.24 99.16 804.15 99.43 802.84 98.77 Z" />
</g>
<g id="#29493563">
<path fill="#294935" opacity="0.39" d=" M 823.02 97.75 C 824.25 97.46 825.28 97.81 826.12 98.79 C 824.64 99.49 823.61 99.15 823.02 97.75 Z" />
</g>
<g id="#2c5d3f87">
<path fill="#2c5d3f" opacity="0.53" d=" M 1080.84 99.80 C 1081.75 98.73 1082.85 98.50 1084.14 99.09 C 1083.22 100.22 1082.12 100.46 1080.84 99.80 Z" />
</g>
<g id="#2a5a3d81">
<path fill="#2a5a3d" opacity="0.51" d=" M 1108.84 100.12 C 1110.10 99.50 1111.20 99.73 1112.13 100.82 C 1110.83 101.46 1109.73 101.23 1108.84 100.12 Z" />
</g>
<g id="#2b4e386c">
<path fill="#2b4e38" opacity="0.42" d=" M 1308.00 112.99 C 1309.44 112.47 1310.44 112.87 1311.01 114.19 C 1309.71 114.54 1308.71 114.14 1308.00 112.99 Z" />
<path fill="#2b4e38" opacity="0.42" d=" M 1315.92 418.98 C 1316.67 417.85 1317.70 417.47 1318.99 417.82 C 1318.39 419.14 1317.36 419.52 1315.92 418.98 Z" />
</g>
<g id="#2f574078">
<path fill="#2f5740" opacity="0.47" d=" M 1312.82 113.87 C 1313.39 114.09 1314.52 114.53 1315.08 114.76 C 1314.52 114.53 1313.39 114.09 1312.82 113.87 Z" />
</g>
<g id="#2a47365e">
<path fill="#2a4736" opacity="0.37" d=" M 614.21 117.85 C 615.18 118.68 615.51 119.72 615.21 120.96 C 613.82 120.34 613.49 119.31 614.21 117.85 Z" />
</g>
<g id="#2f4e3c67">
<path fill="#2f4e3c" opacity="0.40" d=" M 781.01 120.09 C 781.18 119.51 781.53 118.35 781.70 117.77 C 781.53 118.35 781.18 119.51 781.01 120.09 Z" />
</g>
<g id="#2d593d80">
<path fill="#2d593d" opacity="0.50" d=" M 633.09 122.14 C 632.49 120.87 632.72 119.77 633.78 118.84 C 634.45 120.13 634.22 121.23 633.09 122.14 Z" />
</g>
<g id="#30563f77">
<path fill="#30563f" opacity="0.47" d=" M 1136.27 119.87 C 1136.46 120.44 1136.85 121.59 1137.04 122.17 C 1136.85 121.59 1136.46 120.44 1136.27 119.87 Z" />
</g>
<g id="#2d433556">
<path fill="#2d4335" opacity="0.34" d=" M 1034.03 123.15 C 1034.29 122.61 1034.82 121.52 1035.08 120.98 C 1034.82 121.52 1034.29 122.61 1034.03 123.15 Z" />
<path fill="#2d4335" opacity="0.34" d=" M 155.86 429.23 C 156.43 429.44 157.56 429.87 158.13 430.09 C 157.56 429.87 156.43 429.44 155.86 429.23 Z" />
</g>
<g id="#32523e6f">
<path fill="#32523e" opacity="0.44" d=" M 46.32 121.83 C 46.50 122.41 46.86 123.57 47.04 124.14 C 46.86 123.57 46.50 122.41 46.32 121.83 Z" />
</g>
<g id="#2f4f3a68">
<path fill="#2f4f3a" opacity="0.41" d=" M 1033.16 127.12 C 1033.41 126.57 1033.92 125.47 1034.17 124.92 C 1033.92 125.47 1033.41 126.57 1033.16 127.12 Z" />
</g>
<g id="#30564077">
<path fill="#305640" opacity="0.47" d=" M 291.22 126.82 C 291.40 127.39 291.76 128.54 291.94 129.11 C 291.76 128.54 291.40 127.39 291.22 126.82 Z" />
</g>
<g id="#2f4f3c68">
<path fill="#2f4f3c" opacity="0.41" d=" M 317.95 129.13 C 318.15 128.56 318.56 127.41 318.76 126.84 C 318.56 127.41 318.15 128.56 317.95 129.13 Z" />
<path fill="#2f4f3c" opacity="0.41" d=" M 1370.95 439.10 C 1371.22 438.55 1371.76 437.45 1372.03 436.91 C 1371.76 437.45 1371.22 438.55 1370.95 439.10 Z" />
<path fill="#2f4f3c" opacity="0.41" d=" M 122.94 450.09 C 123.50 450.29 124.64 450.69 125.20 450.89 C 124.64 450.69 123.50 450.29 122.94 450.09 Z" />
</g>
<g id="#29653e97">
<path fill="#29653e" opacity="0.59" d=" M 316.87 133.01 C 316.56 131.71 316.97 130.70 318.09 129.98 C 318.62 131.45 318.21 132.46 316.87 133.01 Z" />
</g>
<g id="#2a553b79">
<path fill="#2a553b" opacity="0.47" d=" M 902.97 140.91 C 903.22 141.45 903.72 142.54 903.97 143.09 C 903.72 142.54 903.22 141.45 902.97 140.91 Z" />
</g>
<g id="#2f5f4085">
<path fill="#2f5f40" opacity="0.52" d=" M 1352.16 155.92 C 1352.38 156.48 1352.82 157.61 1353.05 158.17 C 1352.82 157.61 1352.38 156.48 1352.16 155.92 Z" />
</g>
<g id="#2b543a78">
<path fill="#2b543a" opacity="0.47" d=" M 912.00 160.90 C 912.24 161.45 912.73 162.54 912.97 163.09 C 912.73 162.54 912.24 161.45 912.00 160.90 Z" />
</g>
<g id="#30493a5f">
<path fill="#30493a" opacity="0.37" d=" M 1353.18 160.83 C 1353.32 161.42 1353.60 162.60 1353.74 163.19 C 1353.60 162.60 1353.32 161.42 1353.18 160.83 Z" />
</g>
<g id="#2b553b78">
<path fill="#2b553b" opacity="0.47" d=" M 880.04 186.91 C 880.28 187.45 880.76 188.55 881.00 189.10 C 880.76 188.55 880.28 187.45 880.04 186.91 Z" />
</g>
<g id="#2b553c77">
<path fill="#2b553c" opacity="0.47" d=" M 924.99 189.90 C 925.23 190.45 925.72 191.54 925.96 192.09 C 925.72 191.54 925.23 190.45 924.99 189.90 Z" />
</g>
<g id="#30573f77">
<path fill="#30573f" opacity="0.47" d=" M 1321.25 217.17 C 1321.42 216.59 1321.77 215.43 1321.94 214.86 C 1321.77 215.43 1321.42 216.59 1321.25 217.17 Z" />
</g>
<g id="#2b563b78">
<path fill="#2b563b" opacity="0.47" d=" M 937.99 218.91 C 938.23 219.46 938.72 220.55 938.97 221.09 C 938.72 220.55 938.23 219.46 937.99 218.91 Z" />
<path fill="#2b563b" opacity="0.47" d=" M 905.04 242.91 C 905.28 243.45 905.76 244.55 906.00 245.10 C 905.76 244.55 905.28 243.45 905.04 242.91 Z" />
</g>
<g id="#2c493860">
<path fill="#2c4938" opacity="0.38" d=" M 1008.99 240.07 C 1009.21 239.51 1009.66 238.40 1009.88 237.84 C 1009.66 238.40 1009.21 239.51 1008.99 240.07 Z" />
</g>
<g id="#2c48375f">
<path fill="#2c4837" opacity="0.37" d=" M 1297.94 242.07 C 1298.51 241.86 1299.63 241.44 1300.20 241.22 C 1299.63 241.44 1298.51 241.86 1297.94 242.07 Z" />
</g>
<g id="#3059407a">
<path fill="#305940" opacity="0.48" d=" M 1291.88 243.96 C 1292.44 243.75 1293.55 243.33 1294.11 243.11 C 1293.55 243.33 1292.44 243.75 1291.88 243.96 Z" />
</g>
<g id="#2b553d78">
<path fill="#2b553d" opacity="0.47" d=" M 950.99 247.90 C 951.24 248.45 951.73 249.54 951.98 250.08 C 951.73 249.54 951.24 248.45 950.99 247.90 Z" />
</g>
<g id="#293a2f48">
<path fill="#293a2f" opacity="0.28" d=" M 1282.91 269.01 C 1284.19 268.46 1285.28 268.73 1286.17 269.81 C 1284.85 270.44 1283.76 270.17 1282.91 269.01 Z" />
</g>
<g id="#305e4181">
<path fill="#305e41" opacity="0.51" d=" M 1289.82 269.99 C 1290.40 270.18 1291.55 270.57 1292.13 270.76 C 1291.55 270.57 1290.40 270.18 1289.82 269.99 Z" />
</g>
<g id="#2b543b76">
<path fill="#2b543b" opacity="0.46" d=" M 963.99 276.90 C 964.23 277.45 964.72 278.54 964.97 279.09 C 964.72 278.54 964.23 277.45 963.99 276.90 Z" />
</g>
<g id="#cfeadbff">
<path fill="#cfeadb" opacity="1.00" d=" M 616.16 280.18 C 616.74 280.76 616.74 280.76 616.16 280.18 Z" />
</g>
<g id="#2b553b77">
<path fill="#2b553b" opacity="0.47" d=" M 926.01 289.92 C 926.26 290.46 926.76 291.55 927.01 292.09 C 926.76 291.55 926.26 290.46 926.01 289.92 Z" />
<path fill="#2b553b" opacity="0.47" d=" M 951.01 345.92 C 951.26 346.47 951.76 347.56 952.01 348.10 C 951.76 347.56 951.26 346.47 951.01 345.92 Z" />
</g>
<g id="#2c493861">
<path fill="#2c4938" opacity="0.38" d=" M 986.98 296.06 C 987.20 295.51 987.66 294.40 987.88 293.84 C 987.66 294.40 987.20 295.51 986.98 296.06 Z" />
</g>
<g id="#2a553b77">
<path fill="#2a553b" opacity="0.47" d=" M 930.02 298.91 C 930.27 299.46 930.77 300.55 931.02 301.09 C 930.77 300.55 930.27 299.46 930.02 298.91 Z" />
</g>
<g id="#2d5e3f87">
<path fill="#2d5e3f" opacity="0.53" d=" M 451.85 315.01 C 453.20 315.54 453.61 316.55 453.07 318.03 C 451.95 317.30 451.55 316.30 451.85 315.01 Z" />
</g>
<g id="#30573f78">
<path fill="#30573f" opacity="0.47" d=" M 432.26 320.20 C 432.43 319.62 432.79 318.47 432.97 317.90 C 432.79 318.47 432.43 319.62 432.26 320.20 Z" />
</g>
<g id="#2f4e3c68">
<path fill="#2f4e3c" opacity="0.41" d=" M 452.93 318.87 C 453.13 319.45 453.53 320.59 453.72 321.17 C 453.53 320.59 453.13 319.45 452.93 318.87 Z" />
<path fill="#2f4e3c" opacity="0.41" d=" M 1320.83 418.14 C 1321.39 417.92 1322.52 417.48 1323.09 417.26 C 1322.52 417.48 1321.39 417.92 1320.83 418.14 Z" />
</g>
<g id="#293c304c">
<path fill="#293c30" opacity="0.30" d=" M 779.88 325.07 C 781.33 325.87 781.52 326.92 780.45 328.20 C 779.73 327.25 779.54 326.20 779.88 325.07 Z" />
</g>
<g id="#2f604187">
<path fill="#2f6041" opacity="0.53" d=" M 738.37 328.24 C 738.47 327.64 738.67 326.44 738.77 325.84 C 738.67 326.44 738.47 327.64 738.37 328.24 Z" />
</g>
<g id="#2e523c6f">
<path fill="#2e523c" opacity="0.44" d=" M 793.86 342.25 C 794.43 342.44 795.57 342.82 796.15 343.01 C 795.57 342.82 794.43 342.44 793.86 342.25 Z" />
<path fill="#2e523c" opacity="0.44" d=" M 1193.93 409.86 C 1194.13 410.43 1194.51 411.58 1194.70 412.15 C 1194.51 411.58 1194.13 410.43 1193.93 409.86 Z" />
</g>
<g id="#304d3a67">
<path fill="#304d3a" opacity="0.40" d=" M 405.90 345.01 C 406.47 344.84 407.62 344.48 408.19 344.30 C 407.62 344.48 406.47 344.84 405.90 345.01 Z" />
</g>
<g id="#2e563d78">
<path fill="#2e563d" opacity="0.47" d=" M 714.84 344.92 C 715.73 343.79 716.83 343.55 718.14 344.19 C 717.21 345.27 716.11 345.51 714.84 344.92 Z" />
</g>
<g id="#2b553b76">
<path fill="#2b553b" opacity="0.46" d=" M 955.16 355.06 C 955.36 355.45 955.78 356.22 955.98 356.61 L 955.53 357.31 C 955.44 356.75 955.25 355.62 955.16 355.06 Z" />
</g>
<g id="#2e614289">
<path fill="#2e6142" opacity="0.54" d=" M 1390.95 361.22 C 1391.16 360.65 1391.58 359.51 1391.79 358.95 C 1391.58 359.51 1391.16 360.65 1390.95 361.22 Z" />
</g>
<g id="#2c50396d">
<path fill="#2c5039" opacity="0.43" d=" M 288.82 365.00 C 288.47 363.71 288.85 362.69 289.97 361.92 C 290.52 363.38 290.14 364.40 288.82 365.00 Z" />
</g>
<g id="#2e5a3e7f">
<path fill="#2e5a3e" opacity="0.50" d=" M 1389.88 365.12 C 1390.17 364.59 1390.75 363.53 1391.04 363.01 C 1390.75 363.53 1390.17 364.59 1389.88 365.12 Z" />
</g>
<g id="#2c4f396c">
<path fill="#2c4f39" opacity="0.42" d=" M 311.78 369.03 C 311.45 367.76 311.82 366.73 312.90 365.95 C 313.50 367.41 313.12 368.43 311.78 369.03 Z" />
</g>
<g id="#2f4f3b69">
<path fill="#2f4f3b" opacity="0.41" d=" M 288.25 369.15 C 288.47 368.57 288.91 367.43 289.13 366.86 C 288.91 367.43 288.47 368.57 288.25 369.15 Z" />
</g>
<g id="#30584079">
<path fill="#305840" opacity="0.47" d=" M 1388.90 369.12 C 1389.17 368.57 1389.71 367.49 1389.99 366.95 C 1389.71 367.49 1389.17 368.57 1388.90 369.12 Z" />
<path fill="#305840" opacity="0.47" d=" M 1380.87 400.11 C 1381.16 399.57 1381.72 398.50 1382.00 397.96 C 1381.72 398.50 1381.16 399.57 1380.87 400.11 Z" />
</g>
<g id="#2b523a72">
<path fill="#2b523a" opacity="0.45" d=" M 52.03 367.94 C 53.16 368.68 53.56 369.70 53.24 370.98 C 51.90 370.42 51.50 369.40 52.03 367.94 Z" />
</g>
<g id="#31584079">
<path fill="#315840" opacity="0.47" d=" M 106.15 368.84 C 106.35 369.41 106.74 370.56 106.94 371.14 C 106.74 370.56 106.35 369.41 106.15 368.84 Z" />
</g>
<g id="#30583e79">
<path fill="#30583e" opacity="0.47" d=" M 310.92 373.08 C 311.20 372.55 311.76 371.47 312.04 370.93 C 311.76 371.47 311.20 372.55 310.92 373.08 Z" />
</g>
<g id="#30574078">
<path fill="#305740" opacity="0.47" d=" M 1387.89 373.07 C 1388.17 372.54 1388.74 371.47 1389.02 370.94 C 1388.74 371.47 1388.17 372.54 1387.89 373.07 Z" />
</g>
<g id="#2f4d3b67">
<path fill="#2f4d3b" opacity="0.40" d=" M 52.96 372.82 C 53.21 373.38 53.70 374.49 53.94 375.05 C 53.70 374.49 53.21 373.38 52.96 372.82 Z" />
<path fill="#2f4d3b" opacity="0.40" d=" M 1386.87 377.05 C 1387.14 376.51 1387.70 375.43 1387.98 374.89 C 1387.70 375.43 1387.14 376.51 1386.87 377.05 Z" />
<path fill="#2f4d3b" opacity="0.40" d=" M 229.83 451.96 C 230.39 451.74 231.53 451.31 232.10 451.09 C 231.53 451.31 230.39 451.74 229.83 451.96 Z" />
</g>
<g id="#304b3a60">
<path fill="#304b3a" opacity="0.38" d=" M 106.89 372.96 C 107.17 373.49 107.73 374.56 108.02 375.10 C 107.73 374.56 107.17 373.49 106.89 372.96 Z" />
</g>
<g id="#30563d76">
<path fill="#30563d" opacity="0.46" d=" M 310.17 377.18 C 310.37 376.61 310.79 375.46 310.99 374.89 C 310.79 375.46 310.37 376.61 310.17 377.18 Z" />
</g>
<g id="#2f4e3b68">
<path fill="#2f4e3b" opacity="0.41" d=" M 107.89 376.88 C 108.12 377.44 108.58 378.56 108.81 379.12 C 108.58 378.56 108.12 377.44 107.89 376.88 Z" />
<path fill="#2f4e3b" opacity="0.41" d=" M 225.86 453.01 C 226.40 452.74 227.48 452.18 228.02 451.90 C 227.48 452.18 226.40 452.74 225.86 453.01 Z" />
</g>
<g id="#2f4f3b68">
<path fill="#2f4f3b" opacity="0.41" d=" M 1385.91 381.08 C 1386.17 380.54 1386.69 379.44 1386.95 378.89 C 1386.69 379.44 1386.17 380.54 1385.91 381.08 Z" />
</g>
<g id="#2f573e77">
<path fill="#2f573e" opacity="0.47" d=" M 55.05 379.93 C 55.26 380.49 55.68 381.62 55.89 382.18 C 55.68 381.62 55.26 380.49 55.05 379.93 Z" />
</g>
<g id="#29533a76">
<path fill="#29533a" opacity="0.46" d=" M 1384.91 385.13 C 1384.41 383.78 1384.78 382.71 1386.02 381.93 C 1386.44 383.28 1386.07 384.35 1384.91 385.13 Z" />
</g>
<g id="#2f2f2f87">
<path fill="#2f2f2f" opacity="0.53" d=" M 915.22 386.16 L 916.23 385.77 L 916.98 386.28 C 916.49 386.47 915.51 386.86 915.02 387.05 L 915.22 386.16 Z" />
<path fill="#2f2f2f" opacity="0.53" d=" M 518.86 399.94 C 519.00 399.42 519.29 398.39 519.43 397.87 L 520.02 398.58 L 519.73 399.64 L 518.86 399.94 Z" />
<path fill="#2f2f2f" opacity="0.53" d=" M 618.23 429.06 C 619.58 429.94 619.47 430.50 617.88 430.73 C 617.97 430.31 618.14 429.48 618.23 429.06 Z" />
<path fill="#2f2f2f" opacity="0.53" d=" M 1006.22 429.06 C 1007.58 429.93 1007.46 430.49 1005.89 430.73 C 1005.97 430.31 1006.14 429.48 1006.22 429.06 Z" />
</g>
<g id="#2b2b2b82">
<path fill="#2b2b2b" opacity="0.51" d=" M 928.06 386.34 C 929.37 385.14 930.29 385.39 930.80 387.09 C 929.76 387.26 928.84 387.01 928.06 386.34 Z" />
<path fill="#2b2b2b" opacity="0.51" d=" M 915.04 442.91 C 916.07 442.72 917.01 442.96 917.85 443.62 C 916.53 444.81 915.59 444.57 915.04 442.91 Z" />
</g>
<g id="#29543a77">
<path fill="#29543a" opacity="0.47" d=" M 1383.90 389.04 C 1383.41 387.60 1383.81 386.59 1385.11 386.00 C 1385.49 387.29 1385.08 388.31 1383.90 389.04 Z" />
</g>
<g id="#000000fe">
<path fill="#000000" opacity="1.00" d=" M 337.55 387.25 C 345.21 386.95 352.90 386.88 360.56 387.30 C 358.82 388.88 356.43 389.09 354.25 389.61 C 354.15 391.18 353.95 392.83 354.64 394.32 C 357.79 402.37 361.96 410.01 364.87 418.15 C 365.09 418.62 365.52 419.58 365.74 420.06 C 367.27 422.48 368.09 425.25 369.37 427.80 C 371.18 427.54 371.40 425.29 372.49 424.13 C 372.62 423.61 372.88 422.59 373.01 422.07 C 373.19 420.97 373.58 419.95 374.18 419.01 C 374.42 418.54 374.88 417.60 375.12 417.13 C 375.89 413.55 377.62 410.27 378.90 406.87 C 380.44 403.24 381.48 399.37 383.51 395.98 C 383.68 395.48 384.02 394.49 384.19 393.99 C 383.71 392.74 383.97 391.04 382.85 390.14 C 381.08 389.15 379.18 388.43 377.48 387.32 C 383.58 386.94 389.75 386.73 395.84 387.49 C 393.46 389.18 390.48 390.43 389.19 393.24 C 383.50 405.57 379.02 418.45 373.67 430.91 C 373.47 431.40 373.07 432.37 372.86 432.86 C 371.81 437.03 370.05 441.03 368.05 444.84 C 365.81 440.64 363.67 436.35 362.15 431.84 C 361.93 431.36 361.50 430.40 361.29 429.92 C 359.90 427.74 358.82 425.34 358.15 422.84 C 357.93 422.36 357.51 421.40 357.29 420.92 C 355.91 418.74 354.79 416.35 354.14 413.85 C 353.92 413.37 353.50 412.41 353.29 411.93 C 351.89 409.75 350.78 407.35 350.14 404.85 C 349.92 404.37 349.50 403.41 349.29 402.93 C 347.18 399.50 346.18 395.48 343.78 392.22 C 342.09 390.12 339.63 388.89 337.55 387.25 Z" />
<path fill="#000000" opacity="1.00" d=" M 517.97 387.30 C 533.12 386.82 548.30 387.01 563.45 387.20 C 560.98 392.25 557.24 396.51 554.13 401.15 C 545.13 414.17 535.51 426.77 526.92 440.07 L 526.42 440.84 C 534.42 441.07 542.50 441.45 550.46 440.27 C 551.12 440.22 552.44 440.12 553.11 440.07 C 553.62 439.94 554.65 439.69 555.16 439.56 C 556.50 438.42 558.01 437.45 559.23 436.16 C 561.15 434.00 561.58 430.78 564.00 429.03 C 564.00 429.66 563.98 430.91 563.97 431.54 C 564.19 433.13 564.05 434.68 563.54 436.19 C 563.03 437.30 562.64 438.52 562.97 439.74 C 563.07 440.59 563.26 442.28 563.36 443.13 C 547.09 442.67 530.78 443.58 514.52 442.64 C 526.52 425.27 539.30 408.44 551.08 390.93 L 551.61 390.15 C 543.90 389.92 536.14 389.54 528.49 390.71 C 528.06 390.74 527.21 390.81 526.78 390.85 C 526.28 391.02 525.28 391.35 524.78 391.52 C 522.77 393.45 521.05 395.62 519.43 397.87 C 519.29 398.39 519.00 399.42 518.86 399.94 C 518.93 400.49 519.06 401.60 519.12 402.16 C 518.61 402.00 517.58 401.70 517.06 401.55 C 517.08 400.49 517.06 399.43 516.99 398.39 C 516.93 396.83 517.08 395.29 517.44 393.78 C 517.89 392.00 518.26 390.17 518.04 388.34 L 517.97 387.30 Z" />
<path fill="#000000" opacity="1.00" d=" M 829.53 387.24 C 834.57 386.90 839.64 387.00 844.70 387.17 C 855.57 400.64 866.10 414.40 877.28 427.61 C 878.57 421.14 877.89 414.54 878.03 408.00 C 878.07 403.21 878.30 398.35 877.28 393.63 C 876.99 391.77 875.25 390.76 874.05 389.53 C 873.29 388.76 872.38 388.54 871.32 388.88 C 869.83 389.33 868.95 388.76 868.69 387.15 C 875.56 386.99 882.44 386.99 889.31 387.15 C 889.04 388.76 888.16 389.34 886.69 388.89 C 885.62 388.54 884.70 388.74 883.94 389.48 C 882.59 390.69 880.59 391.80 880.98 393.93 C 880.86 410.72 881.04 427.52 880.91 444.31 C 880.54 444.15 879.80 443.85 879.43 443.70 C 876.53 441.56 874.73 438.28 872.37 435.60 C 862.63 423.70 853.34 411.41 843.27 399.80 C 842.98 399.48 842.41 398.83 842.12 398.51 C 841.86 406.34 842.07 414.17 842.01 422.00 C 842.04 427.76 841.66 433.57 842.55 439.29 C 843.39 439.96 844.22 440.65 845.06 441.36 C 845.79 442.12 846.70 442.39 847.79 442.17 C 848.43 442.20 849.72 442.27 850.36 442.30 C 843.40 443.53 836.31 442.93 829.28 443.05 C 832.36 441.72 836.74 441.90 838.38 438.42 C 839.60 431.35 838.80 424.13 838.99 417.00 C 838.80 408.88 839.58 400.70 838.40 392.63 C 835.99 389.89 831.86 389.85 829.53 387.24 Z" />
</g>
<g id="#000000fd">
<path fill="#000000" opacity="1.00" d=" M 401.54 387.22 C 416.69 386.85 431.86 387.10 447.01 387.09 C 447.02 391.57 446.98 396.05 446.94 400.53 C 446.50 400.10 445.60 399.25 445.16 398.82 C 445.01 398.32 444.71 397.32 444.56 396.82 C 442.56 393.98 440.18 390.99 436.42 390.69 C 431.25 389.62 425.84 389.51 420.69 390.73 C 419.31 391.26 417.93 392.37 418.06 394.01 C 417.82 399.99 417.88 405.99 418.04 411.97 L 418.13 412.92 C 423.58 413.31 429.07 413.05 434.48 412.30 L 435.34 412.25 C 435.80 412.02 436.73 411.54 437.19 411.31 C 438.23 409.65 439.25 407.98 440.44 406.43 C 440.81 406.01 441.55 405.18 441.92 404.76 C 442.12 411.43 441.92 418.11 442.04 424.79 C 439.72 422.17 439.21 417.72 435.37 416.73 C 429.71 415.51 423.86 415.95 418.12 416.08 L 418.04 417.02 C 418.08 424.78 417.32 432.64 418.65 440.33 C 424.53 441.48 430.56 441.24 436.45 440.23 C 436.87 440.19 437.72 440.12 438.14 440.08 C 438.66 439.95 439.68 439.69 440.20 439.56 C 444.35 437.19 446.97 433.27 449.46 429.35 C 449.90 429.27 450.78 429.11 451.22 429.03 C 451.14 429.44 450.98 430.28 450.90 430.70 C 450.87 431.23 450.82 432.31 450.79 432.84 C 450.58 433.33 450.16 434.31 449.94 434.79 C 449.85 436.58 449.47 438.42 448.58 439.99 C 448.46 440.51 448.24 441.53 448.12 442.04 L 448.54 443.04 C 432.80 443.06 417.07 442.90 401.34 443.12 C 403.36 442.20 405.58 441.70 407.46 440.50 C 409.17 439.26 408.93 436.91 409.06 435.07 C 409.06 422.36 409.02 409.66 409.08 396.96 C 408.95 394.94 409.25 392.68 408.06 390.92 C 406.19 389.16 402.89 389.61 401.54 387.22 Z" />
</g>
<g id="#1c1c1c27">
<path fill="#1c1c1c" opacity="0.15" d=" M 447.01 387.09 L 447.95 387.03 C 448.00 391.52 448.89 396.29 446.94 400.53 C 446.98 396.05 447.02 391.57 447.01 387.09 Z" />
<path fill="#1c1c1c" opacity="0.15" d=" M 780.50 443.29 C 785.23 442.71 790.00 443.07 794.76 443.04 C 789.92 444.82 784.58 444.31 779.62 443.39 L 780.50 443.29 Z" />
</g>
<g id="#2d2d2d96">
<path fill="#2d2d2d" opacity="0.59" d=" M 459.33 388.36 C 458.64 390.20 455.61 387.93 457.53 387.03 C 457.98 387.36 458.88 388.03 459.33 388.36 Z" />
</g>
<g id="#2d2d2d90">
<path fill="#2d2d2d" opacity="0.56" d=" M 482.23 387.48 C 483.12 386.02 486.69 386.10 486.74 388.06 C 485.20 388.18 483.68 387.93 482.23 387.48 Z" />
</g>
<g id="#1c1c1c26">
<path fill="#1c1c1c" opacity="0.15" d=" M 614.01 387.10 L 614.95 387.04 C 615.09 391.60 615.78 396.38 613.89 400.70 C 613.99 396.16 614.02 391.63 614.01 387.10 Z" />
<path fill="#1c1c1c" opacity="0.15" d=" M 1002.02 387.09 L 1002.95 387.06 C 1003.09 391.60 1003.75 396.34 1001.92 400.66 C 1001.98 396.13 1002.01 391.61 1002.02 387.09 Z" />
</g>
<g id="#32323269">
<path fill="#323232" opacity="0.41" d=" M 624.22 388.00 C 628.28 386.33 632.74 387.10 637.00 386.98 C 640.84 387.09 644.74 386.63 648.55 387.32 C 648.74 387.71 649.12 388.49 649.31 388.88 L 648.16 388.69 C 640.26 387.30 632.19 388.25 624.22 388.00 Z" />
</g>
<g id="#33333368">
<path fill="#333333" opacity="0.41" d=" M 656.14 387.94 C 659.94 386.51 664.03 387.03 668.00 386.97 C 671.91 387.03 675.97 386.51 679.72 387.94 C 671.86 388.04 664.00 388.03 656.14 387.94 Z" />
<path fill="#333333" opacity="0.41" d=" M 800.15 387.96 C 804.58 386.28 809.38 387.16 814.00 387.00 C 818.25 387.12 822.70 386.32 826.75 388.00 C 817.88 387.94 809.01 388.06 800.15 387.96 Z" />
<path fill="#333333" opacity="0.41" d=" M 1012.33 388.51 C 1010.63 388.56 1010.42 388.08 1011.71 387.06 C 1011.87 387.42 1012.18 388.15 1012.33 388.51 Z" />
<path fill="#333333" opacity="0.41" d=" M 1051.27 388.57 C 1049.57 388.50 1049.40 388.01 1050.75 387.08 C 1050.88 387.45 1051.14 388.20 1051.27 388.57 Z" />
<path fill="#333333" opacity="0.41" d=" M 1070.25 387.08 C 1071.57 388.01 1071.40 388.51 1069.73 388.57 C 1069.86 388.20 1070.12 387.45 1070.25 387.08 Z" />
</g>
<g id="#33333367">
<path fill="#333333" opacity="0.40" d=" M 686.22 388.89 C 684.62 388.53 684.53 387.98 685.95 387.25 C 686.02 387.66 686.15 388.48 686.22 388.89 Z" />
</g>
<g id="#292929a3">
<path fill="#292929" opacity="0.64" d=" M 730.30 387.29 L 730.64 386.45 C 731.31 390.94 731.01 395.49 730.88 400.02 C 730.18 399.96 728.78 399.84 728.08 399.78 C 728.11 399.33 728.18 398.43 728.21 397.98 C 728.67 398.19 729.59 398.60 730.05 398.81 C 730.08 394.97 729.78 391.11 730.30 387.29 Z" />
<path fill="#292929" opacity="0.64" d=" M 513.44 442.60 L 514.52 442.64 C 530.78 443.58 547.09 442.67 563.36 443.13 C 561.79 444.24 559.82 444.01 558.01 444.05 C 544.33 443.92 530.64 444.06 516.95 443.99 C 515.57 444.15 514.47 443.39 513.44 442.60 Z" />
</g>
<g id="#2d2d2d8d">
<path fill="#2d2d2d" opacity="0.55" d=" M 765.23 387.48 C 766.10 386.00 769.70 386.10 769.71 388.08 C 768.18 388.17 766.67 387.93 765.23 387.48 Z" />
</g>
<g id="#30303068">
<path fill="#303030" opacity="0.41" d=" M 489.91 388.24 L 490.68 387.76 L 491.68 388.19 L 491.86 389.08 C 491.37 388.87 490.40 388.45 489.91 388.24 Z" />
</g>
<g id="#29292962">
<path fill="#292929" opacity="0.38" d=" M 517.44 393.78 C 516.06 392.53 516.02 388.76 518.04 388.34 C 518.26 390.17 517.89 392.00 517.44 393.78 Z" />
</g>
<g id="#27272780">
<path fill="#272727" opacity="0.50" d=" M 909.25 388.19 L 910.22 387.73 L 911.00 388.20 C 910.53 388.42 909.58 388.87 909.11 389.10 L 909.25 388.19 Z" />
<path fill="#272727" opacity="0.50" d=" M 364.87 418.15 L 365.77 418.29 L 366.22 419.28 L 365.74 420.06 C 365.52 419.58 365.09 418.62 364.87 418.15 Z" />
<path fill="#272727" opacity="0.50" d=" M 372.15 422.38 L 373.01 422.07 C 372.88 422.59 372.62 423.61 372.49 424.13 L 371.88 423.43 L 372.15 422.38 Z" />
</g>
<g id="#2e2e2e8e">
<path fill="#2e2e2e" opacity="0.56" d=" M 936.20 388.47 C 937.32 387.24 938.51 387.19 939.77 388.32 C 938.84 389.52 937.26 389.36 936.20 388.47 Z" />
</g>
<g id="#2b2b2b8d">
<path fill="#2b2b2b" opacity="0.55" d=" M 628.15 388.93 C 628.65 389.09 629.64 389.40 630.14 389.56 L 629.41 390.12 L 628.40 389.79 L 628.15 388.93 Z" />
</g>
<g id="#2a2a2a5e">
<path fill="#2a2a2a" opacity="0.37" d=" M 644.15 389.61 C 644.91 388.84 645.84 388.54 646.95 388.73 C 646.44 390.37 645.51 390.66 644.15 389.61 Z" />
</g>
<g id="#29292952">
<path fill="#292929" opacity="0.32" d=" M 687.19 388.76 C 688.25 388.47 689.16 388.75 689.91 389.57 C 688.59 390.65 687.68 390.38 687.19 388.76 Z" />
<path fill="#292929" opacity="0.32" d=" M 871.32 388.88 C 872.38 388.54 873.29 388.76 874.05 389.53 C 872.77 390.69 871.86 390.47 871.32 388.88 Z" />
</g>
<g id="#2929294f">
<path fill="#292929" opacity="0.31" d=" M 820.89 389.51 C 821.65 388.79 822.56 388.58 823.62 388.88 C 823.06 390.51 822.15 390.72 820.89 389.51 Z" />
</g>
<g id="#2a2a2a4d">
<path fill="#2a2a2a" opacity="0.30" d=" M 883.94 389.48 C 884.70 388.74 885.62 388.54 886.69 388.89 C 886.09 390.48 885.17 390.67 883.94 389.48 Z" />
</g>
<g id="#3030307e">
<path fill="#303030" opacity="0.49" d=" M 918.58 389.70 C 921.82 389.14 925.19 388.72 928.41 389.68 C 925.14 389.94 921.85 389.95 918.58 389.70 Z" />
</g>
<g id="#292929a8">
<path fill="#292929" opacity="0.66" d=" M 420.69 390.73 C 425.84 389.51 431.25 389.62 436.42 390.69 C 431.19 391.14 425.93 391.11 420.69 390.73 Z" />
<path fill="#292929" opacity="0.66" d=" M 704.67 390.72 C 709.81 389.49 715.23 389.57 720.38 390.74 C 715.15 391.10 709.89 391.12 704.67 390.72 Z" />
<path fill="#292929" opacity="0.66" d=" M 464.28 392.66 C 465.72 400.02 464.77 407.56 464.97 415.00 C 464.76 422.75 465.73 430.60 464.28 438.28 C 463.85 423.09 463.84 407.86 464.28 392.66 Z" />
<path fill="#292929" opacity="0.66" d=" M 586.69 440.35 C 592.24 439.82 597.83 439.89 603.38 440.28 C 597.89 441.36 592.18 441.46 586.69 440.35 Z" />
<path fill="#292929" opacity="0.66" d=" M 702.51 440.36 C 708.14 439.76 713.80 439.95 719.44 440.27 C 713.85 441.24 708.11 441.43 702.51 440.36 Z" />
<path fill="#292929" opacity="0.66" d=" M 974.72 440.35 C 980.26 439.82 985.83 439.89 991.39 440.28 C 985.90 441.36 980.20 441.47 974.72 440.35 Z" />
</g>
<g id="#37373784">
<path fill="#373737" opacity="0.52" d=" M 474.33 390.20 C 477.32 389.83 480.44 389.66 483.30 390.86 C 480.56 390.87 477.83 391.00 475.11 390.94 L 474.33 390.20 Z" />
</g>
<g id="#3333336c">
<path fill="#333333" opacity="0.42" d=" M 528.49 390.71 C 536.14 389.54 543.90 389.92 551.61 390.15 L 551.08 390.93 C 543.56 391.16 536.01 391.08 528.49 390.71 Z" />
</g>
<g id="#282828a9">
<path fill="#282828" opacity="0.66" d=" M 587.78 390.75 C 592.89 389.47 598.29 389.60 603.43 390.68 C 598.22 391.13 592.99 391.12 587.78 390.75 Z" />
</g>
<g id="#2c2c2c8d">
<path fill="#2c2c2c" opacity="0.55" d=" M 662.11 390.27 C 663.58 390.35 663.64 392.19 662.55 392.87 C 662.34 392.43 661.90 391.55 661.69 391.11 L 662.11 390.27 Z" />
</g>
<g id="#3030307b">
<path fill="#303030" opacity="0.48" d=" M 756.76 390.82 C 759.76 389.39 763.26 389.66 766.30 390.87 C 763.12 390.86 759.93 390.93 756.76 390.82 Z" />
</g>
<g id="#2b2b2b77">
<path fill="#2b2b2b" opacity="0.47" d=" M 915.82 390.56 C 916.32 390.36 917.30 389.98 917.79 389.79 L 917.60 390.69 L 916.59 391.09 L 915.82 390.56 Z" />
<path fill="#2b2b2b" opacity="0.47" d=" M 349.29 402.93 C 349.50 403.41 349.92 404.37 350.14 404.85 L 349.23 404.69 L 348.80 403.70 L 349.29 402.93 Z" />
</g>
<g id="#292929a7">
<path fill="#292929" opacity="0.65" d=" M 976.63 390.69 C 981.47 389.52 986.56 389.65 991.43 390.68 C 986.50 391.13 981.55 391.13 976.63 390.69 Z" />
<path fill="#292929" opacity="0.65" d=" M 877.28 393.63 C 878.30 398.35 878.07 403.21 878.03 408.00 C 877.89 414.54 878.57 421.14 877.28 427.61 C 876.81 416.30 876.86 404.94 877.28 393.63 Z" />
<path fill="#292929" opacity="0.65" d=" M 1023.03 416.00 C 1023.23 410.11 1022.21 404.10 1023.74 398.33 C 1024.17 411.64 1024.15 425.01 1023.71 438.33 C 1022.28 430.97 1023.24 423.44 1023.03 416.00 Z" />
<path fill="#292929" opacity="0.65" d=" M 526.92 440.07 C 534.76 439.89 542.62 439.90 550.46 440.27 C 542.50 441.45 534.42 441.07 526.42 440.84 L 526.92 440.07 Z" />
<path fill="#292929" opacity="0.65" d=" M 401.34 443.12 C 417.07 442.90 432.80 443.06 448.54 443.04 C 447.16 443.83 445.59 444.09 444.03 444.04 C 433.02 443.97 422.01 443.94 411.00 444.02 C 407.77 444.00 404.41 444.35 401.34 443.12 Z" />
<path fill="#292929" opacity="0.65" d=" M 568.21 442.96 C 583.73 443.26 599.29 442.62 614.79 443.27 L 615.56 443.70 C 603.40 444.39 591.18 443.76 579.00 444.01 C 575.40 443.90 571.57 444.60 568.21 442.96 Z" />
</g>
<g id="#2e5f4087">
<path fill="#2e5f40" opacity="0.53" d=" M 1382.94 392.13 C 1383.20 391.58 1383.73 390.47 1383.99 389.92 C 1383.73 390.47 1383.20 391.58 1382.94 392.13 Z" />
<path fill="#2e5f40" opacity="0.53" d=" M 1381.90 396.12 C 1382.19 395.59 1382.76 394.52 1383.04 393.98 C 1382.76 394.52 1382.19 395.59 1381.90 396.12 Z" />
</g>
<g id="#2424243b">
<path fill="#242424" opacity="0.23" d=" M 473.46 391.12 L 473.79 392.15 C 474.12 399.04 473.60 405.94 474.07 412.82 C 476.49 412.93 478.92 413.07 481.35 413.14 C 478.66 413.95 475.85 414.06 473.07 414.03 C 473.13 406.40 472.51 398.71 473.46 391.12 Z" />
</g>
<g id="#282828a8">
<path fill="#282828" opacity="0.66" d=" M 576.36 391.50 C 577.67 400.61 576.76 409.84 576.99 419.00 C 576.78 425.66 577.84 432.48 576.11 439.01 C 576.10 423.18 575.62 407.31 576.36 391.50 Z" />
<path fill="#282828" opacity="0.66" d=" M 755.19 417.10 L 756.12 417.00 C 755.86 424.10 756.23 431.22 755.71 438.31 C 754.45 431.32 754.85 424.16 755.19 417.10 Z" />
</g>
<g id="#1e1e1e2c">
<path fill="#1e1e1e" opacity="0.17" d=" M 632.19 391.90 C 633.82 398.47 632.70 405.32 633.00 412.00 C 632.73 420.83 633.62 429.73 632.47 438.51 C 631.58 431.37 632.10 424.17 631.99 417.00 C 632.07 408.63 631.76 400.26 632.19 391.90 Z" />
</g>
<g id="#23232337">
<path fill="#232323" opacity="0.22" d=" M 641.11 413.92 C 641.05 406.53 640.47 399.07 641.63 391.74 C 642.37 398.65 641.00 405.70 642.85 412.49 C 642.26 412.96 641.68 413.44 641.11 413.92 Z" />
</g>
<g id="#1e1e1e2a">
<path fill="#1e1e1e" opacity="0.16" d=" M 692.48 391.66 C 693.48 399.06 692.83 406.55 692.99 414.00 C 692.83 422.53 693.44 431.10 692.55 439.61 C 691.36 429.79 692.25 419.87 691.99 410.00 C 692.04 403.88 691.66 397.74 692.48 391.66 Z" />
</g>
<g id="#28282894">
<path fill="#282828" opacity="0.58" d=" M 755.15 413.96 C 755.42 406.58 754.10 398.98 755.84 391.75 C 756.18 398.94 755.90 406.13 756.06 413.33 C 758.79 413.30 761.53 413.27 764.27 413.15 C 761.38 414.43 758.20 414.06 755.15 413.96 Z" />
</g>
<g id="#28282848">
<path fill="#282828" opacity="0.28" d=" M 944.08 391.82 C 945.12 396.01 945.84 400.61 944.10 404.73 C 943.97 400.43 943.98 396.12 944.08 391.82 Z" />
</g>
<g id="#1e1e1e2b">
<path fill="#1e1e1e" opacity="0.17" d=" M 1058.46 391.41 C 1059.57 403.38 1058.84 415.46 1058.89 427.48 C 1058.61 427.16 1058.04 426.51 1057.76 426.19 C 1058.41 414.60 1057.38 402.97 1058.46 391.41 Z" />
</g>
<g id="#33333369">
<path fill="#333333" opacity="0.41" d=" M 1062.01 412.00 C 1062.18 405.22 1061.38 398.36 1062.66 391.65 C 1063.45 406.75 1062.72 421.88 1063.04 437.00 C 1062.86 439.94 1063.73 443.37 1061.52 445.76 L 1061.58 444.73 C 1062.44 433.84 1061.82 422.91 1062.01 412.00 Z" />
<path fill="#333333" opacity="0.41" d=" M 817.01 413.00 C 817.15 406.20 816.44 399.33 817.60 392.59 C 818.43 401.70 817.81 410.87 817.99 420.00 C 817.93 426.18 818.33 432.39 817.51 438.53 C 816.48 430.06 817.18 421.51 817.01 413.00 Z" />
<path fill="#333333" opacity="0.41" d=" M 1019.36 392.71 C 1020.64 399.73 1019.79 406.91 1019.99 414.00 C 1019.75 422.41 1020.64 430.89 1019.39 439.24 C 1018.64 431.85 1019.13 424.41 1019.01 417.00 C 1019.13 408.90 1018.65 400.79 1019.36 392.71 Z" />
</g>
<g id="#3232326d">
<path fill="#323232" opacity="0.43" d=" M 585.15 412.85 C 584.97 406.10 584.48 399.27 585.58 392.58 C 586.33 399.01 585.82 405.49 586.05 411.94 C 591.14 412.04 596.23 411.96 601.32 412.23 C 596.02 413.50 590.53 413.08 585.15 412.85 Z" />
<path fill="#323232" opacity="0.43" d=" M 973.15 412.84 C 972.86 406.03 972.70 399.19 973.46 392.40 C 974.44 398.87 973.77 405.43 974.05 411.95 C 979.13 412.04 984.23 411.96 989.32 412.23 C 984.02 413.50 978.53 413.08 973.15 412.84 Z" />
<path fill="#323232" opacity="0.43" d=" M 439.94 404.12 C 440.68 404.09 442.15 404.03 442.89 404.01 C 442.65 410.91 444.09 418.09 442.04 424.79 C 441.92 418.11 442.12 411.43 441.92 404.76 C 441.55 405.18 440.81 406.01 440.44 406.43 C 440.32 405.85 440.07 404.69 439.94 404.12 Z" />
<path fill="#323232" opacity="0.43" d=" M 702.05 411.97 C 707.18 411.90 712.32 411.91 717.44 412.32 C 712.41 413.34 707.23 413.19 702.14 412.92 L 702.05 411.97 Z" />
</g>
<g id="#3333336a">
<path fill="#333333" opacity="0.42" d=" M 838.40 392.63 C 839.58 400.70 838.80 408.88 838.99 417.00 C 838.80 424.13 839.60 431.35 838.38 438.42 C 837.65 430.63 838.13 422.80 838.02 415.00 C 838.13 407.54 837.63 400.06 838.40 392.63 Z" />
</g>
<g id="#3333336b">
<path fill="#333333" opacity="0.42" d=" M 964.28 392.72 C 965.84 401.38 964.64 410.25 965.00 419.00 C 964.83 425.42 965.63 431.94 964.28 438.27 C 963.77 430.86 964.08 423.42 964.02 416.00 C 964.09 408.24 963.76 400.47 964.28 392.72 Z" />
</g>
<g id="#2f2f2f65">
<path fill="#2f2f2f" opacity="0.40" d=" M 444.56 396.82 C 444.71 397.32 445.01 398.32 445.16 398.82 L 444.27 398.57 L 443.96 397.53 L 444.56 396.82 Z" />
</g>
<g id="#29292983">
<path fill="#292929" opacity="0.51" d=" M 783.86 397.40 C 785.65 397.24 786.07 400.37 784.59 401.09 C 784.09 399.91 783.82 398.66 783.86 397.40 Z" />
</g>
<g id="#2f2f2f64">
<path fill="#2f2f2f" opacity="0.39" d=" M 491.97 398.41 C 493.93 399.00 493.99 404.07 492.10 404.71 C 492.01 402.61 491.97 400.51 491.97 398.41 Z" />
</g>
<g id="#2f2f2f73">
<path fill="#2f2f2f" opacity="0.45" d=" M 517.06 401.55 C 515.09 402.17 515.03 397.90 516.99 398.39 C 517.06 399.43 517.08 400.49 517.06 401.55 Z" />
</g>
<g id="#3030307f">
<path fill="#303030" opacity="0.50" d=" M 775.02 399.40 C 776.97 399.60 776.97 404.40 775.00 404.58 C 774.97 402.85 774.97 401.12 775.02 399.40 Z" />
</g>
<g id="#1d1d1d29">
<path fill="#1d1d1d" opacity="0.16" d=" M 842.12 398.51 C 842.41 398.83 842.98 399.48 843.27 399.80 C 842.54 412.95 843.70 426.16 842.55 439.29 C 841.66 433.57 842.04 427.76 842.01 422.00 C 842.07 414.17 841.86 406.34 842.12 398.51 Z" />
</g>
<g id="#28282896">
<path fill="#282828" opacity="0.59" d=" M 783.91 405.65 C 783.82 404.36 784.07 403.10 784.57 401.92 C 786.01 402.62 785.69 405.74 783.91 405.65 Z" />
</g>
<g id="#30563e76">
<path fill="#30563e" opacity="0.46" d=" M 1379.86 404.09 C 1380.14 403.55 1380.70 402.48 1380.98 401.94 C 1380.70 402.48 1380.14 403.55 1379.86 404.09 Z" />
</g>
<g id="#2929297c">
<path fill="#292929" opacity="0.49" d=" M 500.84 406.77 C 500.71 405.73 501.00 404.83 501.70 404.06 C 502.85 405.41 502.56 406.32 500.84 406.77 Z" />
</g>
<g id="#292929a4">
<path fill="#292929" opacity="0.64" d=" M 607.05 404.13 C 607.76 404.11 609.19 404.05 609.91 404.03 C 610.04 409.36 610.03 414.69 610.04 420.03 C 610.09 421.70 609.76 423.35 608.98 424.83 C 608.93 418.16 609.15 411.49 608.96 404.83 C 608.37 405.65 607.79 406.49 607.22 407.33 C 607.18 406.53 607.09 404.93 607.05 404.13 Z" />
</g>
<g id="#29292999">
<path fill="#292929" opacity="0.60" d=" M 995.49 404.31 C 996.09 404.21 997.29 404.03 997.89 403.94 C 998.06 409.30 998.05 414.66 998.04 420.02 C 998.10 421.71 997.66 423.36 996.91 424.87 C 997.02 418.19 997.13 411.51 997.07 404.84 C 996.38 405.95 995.71 407.07 995.01 408.17 C 995.16 406.88 995.32 405.59 995.49 404.31 Z" />
<path fill="#292929" opacity="0.60" d=" M 644.72 441.17 C 646.05 441.26 647.39 441.36 648.74 441.46 C 648.81 442.07 648.96 443.28 649.04 443.89 C 643.02 444.13 637.01 443.94 631.00 444.06 C 628.77 443.97 626.26 444.44 624.48 442.78 C 632.38 443.17 640.31 443.14 648.22 443.01 C 647.05 442.39 645.88 441.79 644.72 441.17 Z" />
</g>
<g id="#30303078">
<path fill="#303030" opacity="0.47" d=" M 723.26 406.41 L 724.12 406.16 C 723.96 406.66 723.65 407.66 723.50 408.16 L 722.94 407.43 L 723.26 406.41 Z" />
<path fill="#303030" opacity="0.47" d=" M 616.98 434.97 C 617.17 434.47 617.56 433.46 617.76 432.96 L 618.25 433.72 L 617.85 434.74 L 616.98 434.97 Z" />
</g>
<g id="#2b2b2b6d">
<path fill="#2b2b2b" opacity="0.43" d=" M 903.96 408.88 C 903.71 407.85 903.88 406.89 904.49 406.01 C 905.75 407.26 905.58 408.22 903.96 408.88 Z" />
<path fill="#2b2b2b" opacity="0.43" d=" M 894.40 421.11 C 895.03 421.95 895.27 422.89 895.10 423.94 C 893.42 423.35 893.18 422.41 894.40 421.11 Z" />
<path fill="#2b2b2b" opacity="0.43" d=" M 930.13 443.60 C 930.96 442.95 931.90 442.71 932.95 442.90 C 932.36 444.57 931.43 444.80 930.13 443.60 Z" />
</g>
<g id="#2f4e3b67">
<path fill="#2f4e3b" opacity="0.40" d=" M 1378.88 408.06 C 1379.15 407.52 1379.70 406.44 1379.98 405.90 C 1379.70 406.44 1379.15 407.52 1378.88 408.06 Z" />
</g>
<g id="#28282892">
<path fill="#282828" opacity="0.57" d=" M 894.34 409.91 C 893.14 408.58 893.39 407.66 895.09 407.16 C 895.26 408.19 895.01 409.11 894.34 409.91 Z" />
</g>
<g id="#30593e79">
<path fill="#30593e" opacity="0.47" d=" M 1192.95 406.85 C 1193.23 407.39 1193.77 408.47 1194.04 409.00 C 1193.77 408.47 1193.23 407.39 1192.95 406.85 Z" />
</g>
<g id="#2f4e3a67">
<path fill="#2f4e3a" opacity="0.40" d=" M 1377.93 412.07 C 1378.19 411.53 1378.71 410.43 1378.97 409.89 C 1378.71 410.43 1378.19 411.53 1377.93 412.07 Z" />
<path fill="#2f4e3a" opacity="0.40" d=" M 1369.77 441.97 C 1370.10 441.75 1370.74 441.31 1371.07 441.09 C 1370.98 441.52 1370.81 442.37 1370.73 442.80 L 1369.91 442.81 L 1369.77 441.97 Z" />
</g>
<g id="#2b2b2b78">
<path fill="#2b2b2b" opacity="0.47" d=" M 435.45 411.37 L 436.39 410.88 L 437.19 411.31 C 436.73 411.54 435.80 412.02 435.34 412.25 L 435.45 411.37 Z" />
<path fill="#2b2b2b" opacity="0.47" d=" M 353.29 411.93 C 353.50 412.41 353.92 413.37 354.14 413.85 L 353.23 413.69 L 352.80 412.70 L 353.29 411.93 Z" />
<path fill="#2b2b2b" opacity="0.47" d=" M 572.42 441.23 L 573.42 440.88 L 574.16 441.41 C 573.67 441.58 572.69 441.92 572.20 442.09 L 572.42 441.23 Z" />
<path fill="#2b2b2b" opacity="0.47" d=" M 960.41 441.24 L 961.39 440.84 L 962.15 441.34 C 961.67 441.53 960.71 441.91 960.23 442.10 L 960.41 441.24 Z" />
</g>
<g id="#31313171">
<path fill="#313131" opacity="0.44" d=" M 418.04 411.97 C 423.52 411.90 429.01 411.93 434.48 412.30 C 429.07 413.05 423.58 413.31 418.13 412.92 L 418.04 411.97 Z" />
</g>
<g id="#35353573">
<path fill="#353535" opacity="0.45" d=" M 483.03 412.82 C 483.51 412.60 484.46 412.17 484.94 411.96 L 484.79 412.85 L 483.81 413.29 L 483.03 412.82 Z" />
</g>
<g id="#242424b0">
<path fill="#242424" opacity="0.69" d=" M 903.54 418.98 C 902.74 416.75 902.72 414.36 903.52 412.14 C 904.77 414.00 904.74 417.08 903.54 418.98 Z" />
</g>
<g id="#29533976">
<path fill="#295339" opacity="0.46" d=" M 1376.97 416.10 C 1376.46 414.74 1376.82 413.67 1378.05 412.91 C 1378.49 414.24 1378.13 415.31 1376.97 416.10 Z" />
</g>
<g id="#3030307c">
<path fill="#303030" opacity="0.49" d=" M 930.07 413.91 C 931.10 413.45 932.04 413.61 932.91 414.40 C 931.72 415.57 930.78 415.40 930.07 413.91 Z" />
<path fill="#303030" opacity="0.49" d=" M 802.01 442.25 C 802.58 440.60 803.54 440.36 804.89 441.52 C 804.04 442.19 803.08 442.43 802.01 442.25 Z" />
</g>
<g id="#2d2d2d87">
<path fill="#2d2d2d" opacity="0.53" d=" M 947.99 414.64 C 948.66 413.88 949.52 413.51 950.59 413.54 C 950.30 415.31 949.43 415.68 947.99 414.64 Z" />
</g>
<g id="#30303077">
<path fill="#303030" opacity="0.47" d=" M 488.73 415.43 C 489.24 415.32 490.27 415.10 490.79 414.98 L 490.45 415.82 L 489.41 416.05 L 488.73 415.43 Z" />
<path fill="#303030" opacity="0.47" d=" M 451.22 429.03 C 452.59 429.89 452.49 430.44 450.90 430.70 C 450.98 430.28 451.14 429.44 451.22 429.03 Z" />
<path fill="#303030" opacity="0.47" d=" M 734.00 433.03 C 734.13 432.51 734.41 431.47 734.55 430.95 L 735.14 431.67 L 734.85 432.73 L 734.00 433.03 Z" />
<path fill="#303030" opacity="0.47" d=" M 1004.97 434.98 C 1005.17 434.48 1005.58 433.48 1005.78 432.98 L 1006.26 433.75 L 1005.84 434.76 L 1004.97 434.98 Z" />
</g>
<g id="#20202033">
<path fill="#202020" opacity="0.20" d=" M 418.12 416.08 C 423.86 415.95 429.71 415.51 435.37 416.73 C 429.60 417.05 423.81 417.04 418.04 417.02 L 418.12 416.08 Z" />
<path fill="#202020" opacity="0.20" d=" M 641.58 439.41 C 640.76 432.20 640.42 424.79 641.68 417.61 C 642.07 424.87 642.20 432.16 641.58 439.41 Z" />
</g>
<g id="#2b2b2b53">
<path fill="#2b2b2b" opacity="0.33" d=" M 585.13 416.11 C 590.88 415.99 596.72 415.48 602.40 416.67 C 596.96 416.76 591.53 416.53 586.10 416.85 C 585.78 424.32 586.48 431.83 585.64 439.28 C 584.37 431.63 585.08 423.82 585.13 416.11 Z" />
<path fill="#2b2b2b" opacity="0.33" d=" M 973.14 416.11 C 978.89 415.99 984.72 415.50 990.41 416.65 C 984.97 416.74 979.53 416.53 974.11 416.86 C 973.76 424.35 974.51 431.87 973.61 439.34 C 972.42 431.66 973.05 423.85 973.14 416.11 Z" />
</g>
<g id="#20202030">
<path fill="#202020" opacity="0.19" d=" M 702.12 416.08 C 707.56 415.90 713.08 415.61 718.47 416.64 C 713.00 417.07 707.51 417.08 702.03 417.03 L 702.12 416.08 Z" />
</g>
<g id="#2727277f">
<path fill="#272727" opacity="0.50" d=" M 374.21 417.25 L 375.12 417.13 C 374.88 417.60 374.42 418.54 374.18 419.01 L 373.73 418.22 L 374.21 417.25 Z" />
</g>
<g id="#1f1f1f2f">
<path fill="#1f1f1f" opacity="0.18" d=" M 473.13 417.14 C 473.55 417.10 474.37 417.01 474.79 416.97 C 473.13 424.34 474.59 431.93 473.59 439.37 C 472.54 432.01 472.97 424.54 473.13 417.14 Z" />
</g>
<g id="#20202032">
<path fill="#202020" opacity="0.20" d=" M 945.16 438.15 C 945.17 431.06 944.23 423.80 945.81 416.82 C 945.62 423.90 946.94 431.25 945.16 438.15 Z" />
</g>
<g id="#28282870">
<path fill="#282828" opacity="0.44" d=" M 357.29 420.92 C 357.51 421.40 357.93 422.36 358.15 422.84 L 357.25 422.69 L 356.80 421.70 L 357.29 420.92 Z" />
<path fill="#282828" opacity="0.44" d=" M 361.29 429.92 C 361.50 430.40 361.93 431.36 362.15 431.84 L 361.24 431.69 L 360.80 430.70 L 361.29 429.92 Z" />
</g>
<g id="#2a2a2a5d">
<path fill="#2a2a2a" opacity="0.36" d=" M 903.92 421.06 C 905.54 421.73 905.72 422.70 904.47 423.96 C 903.87 423.07 903.68 422.10 903.92 421.06 Z" />
<path fill="#2a2a2a" opacity="0.36" d=" M 625.54 442.56 C 625.11 440.83 628.11 439.87 628.92 441.39 C 627.95 442.16 626.72 442.39 625.54 442.56 Z" />
</g>
<g id="#33333378">
<path fill="#333333" opacity="0.47" d=" M 995.52 420.73 C 995.66 421.24 995.94 422.26 996.08 422.77 L 995.22 422.49 L 994.94 421.45 L 995.52 420.73 Z" />
</g>
<g id="#2e604087">
<path fill="#2e6040" opacity="0.53" d=" M 1373.89 427.15 C 1374.17 426.61 1374.73 425.54 1375.01 425.01 C 1374.73 425.54 1374.17 426.61 1373.89 427.15 Z" />
</g>
<g id="#2b563b79">
<path fill="#2b563b" opacity="0.47" d=" M 146.90 426.10 C 147.45 426.33 148.56 426.80 149.11 427.04 C 148.56 426.80 147.45 426.33 146.90 426.10 Z" />
</g>
<g id="#2c493760">
<path fill="#2c4937" opacity="0.38" d=" M 238.94 427.10 C 239.49 426.87 240.60 426.41 241.16 426.17 C 240.60 426.41 239.49 426.87 238.94 427.10 Z" />
</g>
<g id="#2f583e78">
<path fill="#2f583e" opacity="0.47" d=" M 229.92 430.13 C 230.45 429.85 231.51 429.30 232.05 429.03 C 231.51 429.30 230.45 429.85 229.92 430.13 Z" />
</g>
<g id="#3232326b">
<path fill="#323232" opacity="0.42" d=" M 564.00 429.03 C 565.73 428.63 565.71 432.23 563.97 431.54 C 563.98 430.91 564.00 429.66 564.00 429.03 Z" />
</g>
<g id="#2f563d76">
<path fill="#2f563d" opacity="0.46" d=" M 1372.89 431.12 C 1373.17 430.58 1373.72 429.50 1374.00 428.96 C 1373.72 429.50 1373.17 430.58 1372.89 431.12 Z" />
</g>
<g id="#2e5f4187">
<path fill="#2e5f41" opacity="0.53" d=" M 159.01 430.00 C 159.54 430.28 160.62 430.83 161.15 431.10 C 160.62 430.83 159.54 430.28 159.01 430.00 Z" />
</g>
<g id="#30573e77">
<path fill="#30573e" opacity="0.47" d=" M 225.94 430.95 C 226.49 430.71 227.60 430.24 228.15 430.01 C 227.60 430.24 226.49 430.71 225.94 430.95 Z" />
</g>
<g id="#2c5f4088">
<path fill="#2c5f40" opacity="0.53" d=" M 163.02 430.85 C 164.28 430.50 165.32 430.85 166.14 431.91 C 164.68 432.54 163.64 432.18 163.02 430.85 Z" />
</g>
<g id="#2f2f2f67">
<path fill="#2f2f2f" opacity="0.40" d=" M 449.94 434.79 C 450.16 434.31 450.58 433.33 450.79 432.84 L 451.27 433.62 L 450.83 434.62 L 449.94 434.79 Z" />
<path fill="#2f2f2f" opacity="0.40" d=" M 1004.03 438.84 C 1004.22 438.34 1004.60 437.35 1004.80 436.85 L 1005.30 437.61 L 1004.91 438.62 L 1004.03 438.84 Z" />
</g>
<g id="#2e533c71">
<path fill="#2e533c" opacity="0.44" d=" M 1115.88 434.11 C 1116.44 433.88 1117.56 433.43 1118.12 433.20 C 1117.56 433.43 1116.44 433.88 1115.88 434.11 Z" />
</g>
<g id="#30583f78">
<path fill="#30583f" opacity="0.47" d=" M 1371.90 435.09 C 1372.18 434.56 1372.73 433.48 1373.01 432.95 C 1372.73 433.48 1372.18 434.56 1371.90 435.09 Z" />
</g>
<g id="#30573d77">
<path fill="#30573d" opacity="0.47" d=" M 1112.86 435.10 C 1113.40 434.83 1114.47 434.29 1115.01 434.02 C 1114.47 434.29 1113.40 434.83 1112.86 435.10 Z" />
</g>
<g id="#2f2f2f68">
<path fill="#2f2f2f" opacity="0.41" d=" M 732.86 436.77 C 733.10 436.29 733.57 435.34 733.80 434.86 L 734.25 435.66 L 733.77 436.63 L 732.86 436.77 Z" />
<path fill="#2f2f2f" opacity="0.41" d=" M 615.97 438.82 C 616.18 438.33 616.58 437.35 616.79 436.86 L 617.27 437.63 L 616.86 438.63 L 615.97 438.82 Z" />
<path fill="#2f2f2f" opacity="0.41" d=" M 438.44 439.22 L 439.50 438.95 L 440.20 439.56 C 439.68 439.69 438.66 439.95 438.14 440.08 L 438.44 439.22 Z" />
</g>
<g id="#2d4d3866">
<path fill="#2d4d38" opacity="0.40" d=" M 1107.95 436.03 C 1108.69 434.89 1109.71 434.49 1111.02 434.83 C 1110.43 436.15 1109.40 436.55 1107.95 436.03 Z" />
</g>
<g id="#2e2e2e87">
<path fill="#2e2e2e" opacity="0.53" d=" M 562.97 439.74 C 562.64 438.52 563.03 437.30 563.54 436.19 C 565.00 436.78 564.71 439.87 562.97 439.74 Z" />
</g>
<g id="#272727ab">
<path fill="#272727" opacity="0.67" d=" M 418.65 440.33 C 424.56 439.77 430.52 439.98 436.45 440.23 C 430.56 441.24 424.53 441.48 418.65 440.33 Z" />
</g>
<g id="#2f2f2f83">
<path fill="#2f2f2f" opacity="0.51" d=" M 920.03 440.35 C 920.83 439.02 923.79 439.34 923.85 441.06 C 922.51 441.22 921.20 440.93 920.03 440.35 Z" />
</g>
<g id="#2d2d2d7b">
<path fill="#2d2d2d" opacity="0.48" d=" M 926.21 441.08 C 926.41 439.23 929.75 439.11 930.76 440.44 C 929.34 441.15 927.74 441.22 926.21 441.08 Z" />
</g>
<g id="#282828a1">
<path fill="#282828" opacity="0.63" d=" M 1002.58 442.83 C 1003.04 441.78 1003.50 440.72 1003.95 439.66 C 1003.78 441.02 1003.61 442.38 1003.44 443.75 C 990.97 444.36 978.48 443.79 966.00 444.03 C 962.72 443.96 959.24 444.51 956.21 442.96 C 971.66 442.91 987.13 443.29 1002.58 442.83 Z" />
</g>
<g id="#1f1f1f40">
<path fill="#1f1f1f" opacity="0.25" d=" M 456.95 440.92 C 457.82 440.99 459.56 441.12 460.43 441.19 C 459.46 441.76 458.50 442.35 457.54 442.95 C 465.19 443.00 472.85 443.08 480.50 442.88 C 479.51 442.32 478.52 441.78 477.53 441.26 C 478.42 441.18 480.19 441.01 481.08 440.93 C 481.00 441.63 480.86 443.05 480.79 443.76 C 472.89 444.01 464.98 443.95 457.08 443.83 C 457.05 443.10 456.98 441.65 456.95 440.92 Z" />
</g>
<g id="#1e1e1e33">
<path fill="#1e1e1e" opacity="0.20" d=" M 509.99 441.22 C 510.48 441.16 511.46 441.06 511.95 441.00 C 511.93 441.69 511.88 443.08 511.86 443.77 C 507.14 443.87 502.22 444.83 497.66 443.21 C 502.12 442.90 506.59 442.99 511.06 443.00 C 510.79 442.55 510.26 441.66 509.99 441.22 Z" />
<path fill="#1e1e1e" opacity="0.20" d=" M 760.43 441.32 C 761.35 441.21 763.18 441.01 764.09 440.91 C 764.02 441.63 763.87 443.08 763.80 443.81 C 757.52 444.08 751.25 443.93 744.97 444.05 C 743.03 444.13 741.13 443.75 739.33 443.06 C 747.40 442.86 755.48 443.16 763.55 442.87 C 762.51 442.33 761.47 441.81 760.43 441.32 Z" />
</g>
<g id="#30303074">
<path fill="#303030" opacity="0.45" d=" M 659.15 442.24 C 659.55 440.66 660.45 440.34 661.84 441.29 C 661.19 442.20 660.29 442.51 659.15 442.24 Z" />
</g>
<g id="#29292997">
<path fill="#292929" opacity="0.59" d=" M 679.80 441.14 C 681.06 441.24 682.33 441.35 683.61 441.48 C 683.69 442.07 683.85 443.25 683.92 443.84 C 675.07 444.04 666.17 444.26 657.34 443.78 C 657.21 443.33 656.94 442.44 656.81 442.00 L 657.94 442.20 C 666.26 443.81 674.80 442.92 683.22 442.99 C 682.07 442.37 680.93 441.75 679.80 441.14 Z" />
</g>
<g id="#2e2e2e85">
<path fill="#2e2e2e" opacity="0.52" d=" M 821.02 441.42 C 822.30 440.23 823.20 440.46 823.73 442.10 C 822.67 442.38 821.76 442.15 821.02 441.42 Z" />
</g>
<g id="#28282862">
<path fill="#282828" opacity="0.38" d=" M 845.06 441.36 C 846.39 440.25 847.30 440.52 847.79 442.17 C 846.70 442.39 845.79 442.12 845.06 441.36 Z" />
</g>
<g id="#27272759">
<path fill="#272727" opacity="0.35" d=" M 1014.21 442.17 C 1014.67 440.53 1015.58 440.25 1016.94 441.36 C 1016.19 442.13 1015.28 442.40 1014.21 442.17 Z" />
</g>
<g id="#292929a1">
<path fill="#292929" opacity="0.63" d=" M 684.42 442.67 L 685.51 442.70 C 692.00 443.05 698.50 443.14 705.00 443.03 C 714.07 442.85 723.18 443.61 732.20 442.36 C 731.64 444.19 729.54 443.92 728.04 444.02 C 715.00 444.00 701.97 443.98 688.94 444.03 C 687.28 444.14 685.70 443.73 684.42 442.67 Z" />
<path fill="#292929" opacity="0.63" d=" M 799.76 442.09 L 800.87 442.25 C 809.43 443.75 818.14 442.80 826.78 442.95 C 823.11 444.74 818.92 443.83 815.00 444.01 C 810.18 443.79 805.29 444.49 800.54 443.63 C 800.34 443.25 799.95 442.48 799.76 442.09 Z" />
</g>
<g id="#2a2a2aa4">
<path fill="#2a2a2a" opacity="0.64" d=" M 850.36 442.30 L 851.46 442.15 C 850.62 444.95 847.17 443.71 845.00 444.03 C 839.78 443.64 834.30 444.92 829.28 443.05 C 836.31 442.93 843.40 443.53 850.36 442.30 Z" />
</g>
<g id="#2a2a2a9e">
<path fill="#2a2a2a" opacity="0.62" d=" M 1010.49 442.25 L 1011.61 442.38 C 1018.19 443.48 1024.88 443.19 1031.50 442.60 L 1032.59 442.54 C 1031.72 443.63 1030.41 444.12 1029.05 444.01 C 1024.02 444.04 1018.99 444.07 1013.97 443.99 C 1012.52 444.11 1011.19 443.53 1010.49 442.25 Z" />
</g>
<g id="#2f2f2f8d">
<path fill="#2f2f2f" opacity="0.55" d=" M 879.43 443.70 C 879.80 443.85 880.54 444.15 880.91 444.31 C 879.90 445.59 879.41 445.38 879.43 443.70 Z" />
</g>
<g id="#28282846">
<path fill="#282828" opacity="0.27" d=" M 919.56 444.11 C 922.51 444.19 925.47 444.19 928.43 444.10 C 925.55 445.29 922.43 445.31 919.56 444.11 Z" />
</g>
<g id="#2c523a72">
<path fill="#2c523a" opacity="0.45" d=" M 221.07 454.15 C 221.57 452.89 222.52 452.43 223.90 452.79 C 223.40 454.10 222.45 454.55 221.07 454.15 Z" />
</g>
<g id="#2c4f396d">
<path fill="#2c4f39" opacity="0.43" d=" M 138.95 454.11 C 140.40 453.46 141.44 453.81 142.07 455.15 C 140.81 455.50 139.77 455.15 138.95 454.11 Z" />
</g>
<g id="#2d553d76">
<path fill="#2d553d" opacity="0.46" d=" M 216.02 454.91 C 216.78 453.78 217.80 453.40 219.07 453.77 C 218.49 455.09 217.47 455.47 216.02 454.91 Z" />
</g>
<g id="#293a2f47">
<path fill="#293a2f" opacity="0.28" d=" M 143.86 454.85 C 145.16 454.39 146.25 454.68 147.15 455.73 C 145.79 456.37 144.70 456.08 143.86 454.85 Z" />
</g>
<g id="#6fbe8dff">
<path fill="#6fbe8d" opacity="1.00" d=" M 160.54 457.17 C 164.28 456.97 168.01 457.41 171.70 458.00 L 161.58 458.00 L 160.54 457.17 Z" />
</g>
<g id="#72c08fff">
<path fill="#72c08f" opacity="1.00" d=" M 191.27 458.00 C 194.27 457.55 197.29 457.19 200.34 457.20 L 199.25 458.00 L 191.27 458.00 Z" />
</g>
</svg>
